ISO-10303-21;
HEADER;
FILE_DESCRIPTION (( 'STEP AP214' ),
    '1' );
FILE_NAME ('TapaMedia.STEP',
    '2026-09-17T22:05:56',
    ( '' ),
    ( '' ),
    'SwSTEP 2.0',
    'SolidWorks 2026',
    '' );
FILE_SCHEMA (( 'AUTOMOTIVE_DESIGN' ));
ENDSEC;

DATA;
#1 = DIRECTION ( 'NONE',  ( -0.000000000000000000, -1.000000000000000000, -0.000000000000000000 ) ) ;
#2 = PRODUCT_CONTEXT ( 'NONE', #133, 'mechanical' ) ;
#3 = ADVANCED_FACE ( 'NONE', ( #67, #151 ), #69, .T. ) ;
#4 = CIRCLE ( 'NONE', #82, 7.500000000000007105 ) ;
#5 = ADVANCED_BREP_SHAPE_REPRESENTATION ( 'TapaMedia', ( #154, #19 ), #105 ) ;
#6 = ORIENTED_EDGE ( 'NONE', *, *, #193, .T. ) ;
#7 = UNCERTAINTY_MEASURE_WITH_UNIT (LENGTH_MEASURE( 1.000000000000000082E-05 ), #143, 'distance_accuracy_value', 'NONE');
#8 = LINE ( 'NONE', #199, #72 ) ;
#9 = DIRECTION ( 'NONE',  ( 0.000000000000000000, 0.000000000000000000, 1.000000000000000000 ) ) ;
#10 = ORIENTED_EDGE ( 'NONE', *, *, #178, .F. ) ;
#11 = MECHANICAL_DESIGN_GEOMETRIC_PRESENTATION_REPRESENTATION (  '', ( #114 ), #20 ) ;
#12 = ORIENTED_EDGE ( 'NONE', *, *, #47, .F. ) ;
#13 = EDGE_CURVE ( 'NONE', #167, #65, #37, .T. ) ;
#14 = CYLINDRICAL_SURFACE ( 'NONE', #205, 68.99999999999998579 ) ;
#15 = DIRECTION ( 'NONE',  ( 0.000000000000000000, 0.000000000000000000, 1.000000000000000000 ) ) ;
#16 =( NAMED_UNIT ( * ) SI_UNIT ( $, .STERADIAN. ) SOLID_ANGLE_UNIT ( ) );
#17 = DIRECTION ( 'NONE',  ( 0.000000000000000000, 1.000000000000000000, 0.000000000000000000 ) ) ;
#18 = CARTESIAN_POINT ( 'NONE',  ( 8.450062914116734689E-15, 0.000000000000000000, -68.99999999999998579 ) ) ;
#19 = AXIS2_PLACEMENT_3D ( 'NONE', #163, #63, #191 ) ;
#20 =( GEOMETRIC_REPRESENTATION_CONTEXT ( 3 ) GLOBAL_UNCERTAINTY_ASSIGNED_CONTEXT ( ( #7 ) ) GLOBAL_UNIT_ASSIGNED_CONTEXT ( ( #143, #58, #16 ) ) REPRESENTATION_CONTEXT ( 'NONE', 'WORKASPACE' ) );
#21 = VERTEX_POINT ( 'NONE', #189 ) ;
#22 = AXIS2_PLACEMENT_3D ( 'NONE', #18, #119, #41 ) ;
#23 = ORIENTED_EDGE ( 'NONE', *, *, #102, .F. ) ;
#24 = ORIENTED_EDGE ( 'NONE', *, *, #134, .F. ) ;
#25 = EDGE_CURVE ( 'NONE', #21, #111, #55, .T. ) ;
#26 = FACE_OUTER_BOUND ( 'NONE', #71, .T. ) ;
#27 = VERTEX_POINT ( 'NONE', #145 ) ;
#28 = PRODUCT_DEFINITION_FORMATION_WITH_SPECIFIED_SOURCE ( 'ANY', '', #155, .NOT_KNOWN. ) ;
#29 = CARTESIAN_POINT ( 'NONE',  ( 8.450062914116734689E-15, 8.000000000000000000, -68.99999999999998579 ) ) ;
#30 = DIRECTION ( 'NONE',  ( -0.000000000000000000, -1.000000000000000000, -0.000000000000000000 ) ) ;
#31 = DIRECTION ( 'NONE',  ( 0.000000000000000000, 1.000000000000000000, 0.000000000000000000 ) ) ;
#32 = APPLICATION_PROTOCOL_DEFINITION ( 'draft international standard', 'automotive_design', 1998, #204 ) ;
#33 = ADVANCED_FACE ( 'NONE', ( #186 ), #115, .T. ) ;
#34 = APPLICATION_PROTOCOL_DEFINITION ( 'draft international standard', 'automotive_design', 1998, #133 ) ;
#35 = EDGE_LOOP ( 'NONE', ( #121, #179, #166, #124 ) ) ;
#36 = AXIS2_PLACEMENT_3D ( 'NONE', #29, #80, #144 ) ;
#37 = LINE ( 'NONE', #103, #125 ) ;
#38 = EDGE_LOOP ( 'NONE', ( #75, #153 ) ) ;
#39 = PRODUCT_DEFINITION_CONTEXT ( 'detailed design', #204, 'design' ) ;
#40 = CARTESIAN_POINT ( 'NONE',  ( 0.000000000000000000, 4.000000000000000000, 0.000000000000000000 ) ) ;
#41 = DIRECTION ( 'NONE',  ( 0.000000000000000000, 0.000000000000000000, -1.000000000000000000 ) ) ;
#42 = EDGE_CURVE ( 'NONE', #111, #21, #116, .T. ) ;
#43 = DIRECTION ( 'NONE',  ( 0.000000000000000000, 1.000000000000000000, 0.000000000000000000 ) ) ;
#44 = VECTOR ( 'NONE', #150, 1000.000000000000000 ) ;
#45 = FACE_OUTER_BOUND ( 'NONE', #38, .T. ) ;
#46 = CARTESIAN_POINT ( 'NONE',  ( 0.000000000000000000, 8.000000000000000000, 0.000000000000000000 ) ) ;
#47 = EDGE_CURVE ( 'NONE', #152, #87, #4, .T. ) ;
#48 = DIRECTION ( 'NONE',  ( 0.000000000000000000, 0.000000000000000000, 1.000000000000000000 ) ) ;
#49 = CARTESIAN_POINT ( 'NONE',  ( 0.000000000000000000, 8.000000000000000000, 0.000000000000000000 ) ) ;
#50 = DIRECTION ( 'NONE',  ( 0.000000000000000000, -0.000000000000000000, 1.000000000000000000 ) ) ;
#51 = PRESENTATION_LAYER_ASSIGNMENT (  '', '', ( #114 ) ) ;
#52 = ORIENTED_EDGE ( 'NONE', *, *, #25, .T. ) ;
#53 = CIRCLE ( 'NONE', #62, 59.00000000000000711 ) ;
#54 = EDGE_LOOP ( 'NONE', ( #24, #85 ) ) ;
#55 = CIRCLE ( 'NONE', #86, 68.99999999999998579 ) ;
#56 = CYLINDRICAL_SURFACE ( 'NONE', #36, 7.500000000000007105 ) ;
#57 = SURFACE_STYLE_FILL_AREA ( #81 ) ;
#58 =( NAMED_UNIT ( * ) PLANE_ANGLE_UNIT ( ) SI_UNIT ( $, .RADIAN. ) );
#59 = CARTESIAN_POINT ( 'NONE',  ( 0.000000000000000000, 4.000000000000000000, 0.000000000000000000 ) ) ;
#60 = SURFACE_STYLE_USAGE ( .BOTH. , #129 ) ;
#61 = EDGE_CURVE ( 'NONE', #111, #87, #8, .T. ) ;
#62 = AXIS2_PLACEMENT_3D ( 'NONE', #99, #118, #48 ) ;
#63 = DIRECTION ( 'NONE',  ( 0.000000000000000000, 0.000000000000000000, 1.000000000000000000 ) ) ;
#64 = PRODUCT_DEFINITION_SHAPE ( 'NONE', 'NONE',  #66 ) ;
#65 = VERTEX_POINT ( 'NONE', #122 ) ;
#66 = PRODUCT_DEFINITION ( 'UNKNOWN', '', #28, #39 ) ;
#67 = FACE_OUTER_BOUND ( 'NONE', #120, .T. ) ;
#68 = CARTESIAN_POINT ( 'NONE',  ( 7.488915485651245874, 4.000000000000000000, -68.59239130434782794 ) ) ;
#69 = PLANE ( 'NONE',  #174 ) ;
#70 = CIRCLE ( 'NONE', #77, 59.00000000000000711 ) ;
#71 = EDGE_LOOP ( 'NONE', ( #52, #197, #23, #137 ) ) ;
#72 = VECTOR ( 'NONE', #73, 1000.000000000000000 ) ;
#73 = DIRECTION ( 'NONE',  ( 0.000000000000000000, 1.000000000000000000, 0.000000000000000000 ) ) ;
#74 = FILL_AREA_STYLE_COLOUR ( '', #157 ) ;
#75 = ORIENTED_EDGE ( 'NONE', *, *, #25, .F. ) ;
#76 = LINE ( 'NONE', #142, #198 ) ;
#77 = AXIS2_PLACEMENT_3D ( 'NONE', #49, #31, #95 ) ;
#78 = DIRECTION ( 'NONE',  ( 0.000000000000000000, 0.000000000000000000, -1.000000000000000000 ) ) ;
#79 = PRODUCT_RELATED_PRODUCT_CATEGORY ( 'part', '', ( #155 ) ) ;
#80 = DIRECTION ( 'NONE',  ( -0.000000000000000000, -1.000000000000000000, -0.000000000000000000 ) ) ;
#81 = FILL_AREA_STYLE ('',( #74 ) ) ;
#82 = AXIS2_PLACEMENT_3D ( 'NONE', #139, #156, #9 ) ;
#83 = DIRECTION ( 'NONE',  ( 0.000000000000000000, 1.000000000000000000, 0.000000000000000000 ) ) ;
#84 = CIRCLE ( 'NONE', #123, 59.00000000000000711 ) ;
#85 = ORIENTED_EDGE ( 'NONE', *, *, #193, .F. ) ;
#86 = AXIS2_PLACEMENT_3D ( 'NONE', #97, #83, #148 ) ;
#87 = VERTEX_POINT ( 'NONE', #68 ) ;
#88 = EDGE_LOOP ( 'NONE', ( #104, #181 ) ) ;
#89 = UNCERTAINTY_MEASURE_WITH_UNIT (LENGTH_MEASURE( 1.000000000000000082E-05 ), #190, 'distance_accuracy_value', 'NONE');
#90 = CARTESIAN_POINT ( 'NONE',  ( 0.000000000000000000, 0.000000000000000000, 0.000000000000000000 ) ) ;
#91 = ADVANCED_FACE ( 'NONE', ( #45 ), #113, .F. ) ;
#92 = DIRECTION ( 'NONE',  ( 0.000000000000000000, 1.000000000000000000, 0.000000000000000000 ) ) ;
#93 = FACE_OUTER_BOUND ( 'NONE', #35, .T. ) ;
#94 = CLOSED_SHELL ( 'NONE', ( #33, #109, #3, #91, #127, #147, #162 ) ) ;
#95 = DIRECTION ( 'NONE',  ( 0.000000000000000000, 0.000000000000000000, 1.000000000000000000 ) ) ;
#96 = CARTESIAN_POINT ( 'NONE',  ( 0.000000000000000000, 8.000000000000000000, 0.000000000000000000 ) ) ;
#97 = CARTESIAN_POINT ( 'NONE',  ( 0.000000000000000000, 0.000000000000000000, 0.000000000000000000 ) ) ;
#98 = CARTESIAN_POINT ( 'NONE',  ( 0.000000000000000000, 4.000000000000000000, -59.00000000000000711 ) ) ;
#99 = CARTESIAN_POINT ( 'NONE',  ( 0.000000000000000000, 4.000000000000000000, 0.000000000000000000 ) ) ;
#100 = ORIENTED_EDGE ( 'NONE', *, *, #13, .T. ) ;
#101 = CIRCLE ( 'NONE', #132, 59.00000000000000711 ) ;
#102 = EDGE_CURVE ( 'NONE', #152, #87, #164, .T. ) ;
#103 = CARTESIAN_POINT ( 'NONE',  ( 7.225416114969384785E-15, 8.000000000000000000, 59.00000000000000711 ) ) ;
#104 = ORIENTED_EDGE ( 'NONE', *, *, #172, .T. ) ;
#105 =( GEOMETRIC_REPRESENTATION_CONTEXT ( 3 ) GLOBAL_UNCERTAINTY_ASSIGNED_CONTEXT ( ( #89 ) ) GLOBAL_UNIT_ASSIGNED_CONTEXT ( ( #190, #176, #187 ) ) REPRESENTATION_CONTEXT ( 'NONE', 'WORKASPACE' ) );
#106 = ORIENTED_EDGE ( 'NONE', *, *, #47, .T. ) ;
#107 = ORIENTED_EDGE ( 'NONE', *, *, #102, .T. ) ;
#108 = ORIENTED_EDGE ( 'NONE', *, *, #42, .T. ) ;
#109 = ADVANCED_FACE ( 'NONE', ( #26 ), #14, .T. ) ;
#110 = FACE_OUTER_BOUND ( 'NONE', #88, .T. ) ;
#111 = VERTEX_POINT ( 'NONE', #168 ) ;
#112 = DIRECTION ( 'NONE',  ( 0.000000000000000000, 0.000000000000000000, -1.000000000000000000 ) ) ;
#113 = PLANE ( 'NONE',  #177 ) ;
#114 = STYLED_ITEM ( 'NONE', ( #183 ), #154 ) ;
#115 = CYLINDRICAL_SURFACE ( 'NONE', #200, 59.00000000000000711 ) ;
#116 = CIRCLE ( 'NONE', #22, 7.500000000000007105 ) ;
#117 = DIRECTION ( 'NONE',  ( -0.000000000000000000, -1.000000000000000000, -0.000000000000000000 ) ) ;
#118 = DIRECTION ( 'NONE',  ( 0.000000000000000000, 1.000000000000000000, 0.000000000000000000 ) ) ;
#119 = DIRECTION ( 'NONE',  ( 0.000000000000000000, -1.000000000000000000, 0.000000000000000000 ) ) ;
#120 = EDGE_LOOP ( 'NONE', ( #12, #107 ) ) ;
#121 = ORIENTED_EDGE ( 'NONE', *, *, #13, .F. ) ;
#122 = CARTESIAN_POINT ( 'NONE',  ( 7.225416114969384785E-15, 4.000000000000000000, 59.00000000000000711 ) ) ;
#123 = AXIS2_PLACEMENT_3D ( 'NONE', #184, #203, #201 ) ;
#124 = ORIENTED_EDGE ( 'NONE', *, *, #134, .T. ) ;
#125 = VECTOR ( 'NONE', #117, 1000.000000000000000 ) ;
#126 = EDGE_LOOP ( 'NONE', ( #108, #138, #106, #140 ) ) ;
#127 = ADVANCED_FACE ( 'NONE', ( #93 ), #171, .T. ) ;
#128 = CARTESIAN_POINT ( 'NONE',  ( 0.000000000000000000, 8.000000000000000000, 0.000000000000000000 ) ) ;
#129 = SURFACE_SIDE_STYLE ('',( #57 ) ) ;
#130 = FACE_OUTER_BOUND ( 'NONE', #126, .T. ) ;
#131 = DIRECTION ( 'NONE',  ( 0.000000000000000000, 1.000000000000000000, 0.000000000000000000 ) ) ;
#132 = AXIS2_PLACEMENT_3D ( 'NONE', #128, #43, #169 ) ;
#133 = APPLICATION_CONTEXT ( 'automotive_design' ) ;
#134 = EDGE_CURVE ( 'NONE', #180, #65, #84, .T. ) ;
#135 = SHAPE_DEFINITION_REPRESENTATION ( #64, #5 ) ;
#136 = ORIENTED_EDGE ( 'NONE', *, *, #165, .F. ) ;
#137 = ORIENTED_EDGE ( 'NONE', *, *, #141, .T. ) ;
#138 = ORIENTED_EDGE ( 'NONE', *, *, #141, .F. ) ;
#139 = CARTESIAN_POINT ( 'NONE',  ( 8.450062914116734689E-15, 4.000000000000000000, -68.99999999999998579 ) ) ;
#140 = ORIENTED_EDGE ( 'NONE', *, *, #61, .F. ) ;
#141 = EDGE_CURVE ( 'NONE', #152, #21, #76, .T. ) ;
#142 = CARTESIAN_POINT ( 'NONE',  ( -7.488915485651356008, 4.000000000000000000, -68.59239130434782794 ) ) ;
#143 =( LENGTH_UNIT ( ) NAMED_UNIT ( * ) SI_UNIT ( .MILLI., .METRE. ) );
#144 = DIRECTION ( 'NONE',  ( 0.000000000000000000, 0.000000000000000000, -1.000000000000000000 ) ) ;
#145 = CARTESIAN_POINT ( 'NONE',  ( 0.000000000000000000, 8.000000000000000000, -59.00000000000000711 ) ) ;
#146 = AXIS2_PLACEMENT_3D ( 'NONE', #158, #161, #112 ) ;
#147 = ADVANCED_FACE ( 'NONE', ( #110 ), #185, .T. ) ;
#148 = DIRECTION ( 'NONE',  ( 0.000000000000000000, 0.000000000000000000, 1.000000000000000000 ) ) ;
#149 = DIRECTION ( 'NONE',  ( 0.000000000000000000, 0.000000000000000000, -1.000000000000000000 ) ) ;
#150 = DIRECTION ( 'NONE',  ( -0.000000000000000000, -1.000000000000000000, -0.000000000000000000 ) ) ;
#151 = FACE_BOUND ( 'NONE', #54, .T. ) ;
#152 = VERTEX_POINT ( 'NONE', #160 ) ;
#153 = ORIENTED_EDGE ( 'NONE', *, *, #42, .F. ) ;
#154 = MANIFOLD_SOLID_BREP ( 'Cortar-Extruir1', #94 ) ;
#155 = PRODUCT ( 'TapaMedia', 'TapaMedia', '', ( #2 ) ) ;
#156 = DIRECTION ( 'NONE',  ( 0.000000000000000000, 1.000000000000000000, 0.000000000000000000 ) ) ;
#157 = COLOUR_RGB ( '',0.7921568627450980005, 0.8196078431372548767, 0.9333333333333333481 ) ;
#158 = CARTESIAN_POINT ( 'NONE',  ( 0.000000000000000000, 8.000000000000000000, 0.000000000000000000 ) ) ;
#159 = CARTESIAN_POINT ( 'NONE',  ( 0.000000000000000000, 4.000000000000000000, 0.000000000000000000 ) ) ;
#160 = CARTESIAN_POINT ( 'NONE',  ( -7.488915485651229886, 4.000000000000000000, -68.59239130434782794 ) ) ;
#161 = DIRECTION ( 'NONE',  ( -0.000000000000000000, -1.000000000000000000, -0.000000000000000000 ) ) ;
#162 = ADVANCED_FACE ( 'NONE', ( #130 ), #56, .F. ) ;
#163 = CARTESIAN_POINT ( 'NONE',  ( 0.000000000000000000, 0.000000000000000000, 0.000000000000000000 ) ) ;
#164 = CIRCLE ( 'NONE', #195, 68.99999999999998579 ) ;
#165 = EDGE_CURVE ( 'NONE', #167, #27, #101, .T. ) ;
#166 = ORIENTED_EDGE ( 'NONE', *, *, #178, .T. ) ;
#167 = VERTEX_POINT ( 'NONE', #173 ) ;
#168 = CARTESIAN_POINT ( 'NONE',  ( 7.488915485651245874, 0.000000000000000000, -68.59239130434782794 ) ) ;
#169 = DIRECTION ( 'NONE',  ( 0.000000000000000000, 0.000000000000000000, 1.000000000000000000 ) ) ;
#170 = DIRECTION ( 'NONE',  ( -0.000000000000000000, -1.000000000000000000, -0.000000000000000000 ) ) ;
#171 = CYLINDRICAL_SURFACE ( 'NONE', #146, 59.00000000000000711 ) ;
#172 = EDGE_CURVE ( 'NONE', #27, #167, #70, .T. ) ;
#173 = CARTESIAN_POINT ( 'NONE',  ( 7.225416114969384785E-15, 8.000000000000000000, 59.00000000000000711 ) ) ;
#174 = AXIS2_PLACEMENT_3D ( 'NONE', #40, #194, #50 ) ;
#175 = CARTESIAN_POINT ( 'NONE',  ( 0.000000000000000000, 8.000000000000000000, -59.00000000000000711 ) ) ;
#176 =( NAMED_UNIT ( * ) PLANE_ANGLE_UNIT ( ) SI_UNIT ( $, .RADIAN. ) );
#177 = AXIS2_PLACEMENT_3D ( 'NONE', #90, #92, #202 ) ;
#178 = EDGE_CURVE ( 'NONE', #27, #180, #192, .T. ) ;
#179 = ORIENTED_EDGE ( 'NONE', *, *, #172, .F. ) ;
#180 = VERTEX_POINT ( 'NONE', #98 ) ;
#181 = ORIENTED_EDGE ( 'NONE', *, *, #165, .T. ) ;
#182 = DIRECTION ( 'NONE',  ( 0.000000000000000000, -0.000000000000000000, 1.000000000000000000 ) ) ;
#183 = PRESENTATION_STYLE_ASSIGNMENT (( #60 ) ) ;
#184 = CARTESIAN_POINT ( 'NONE',  ( 0.000000000000000000, 4.000000000000000000, 0.000000000000000000 ) ) ;
#185 = PLANE ( 'NONE',  #188 ) ;
#186 = FACE_OUTER_BOUND ( 'NONE', #196, .T. ) ;
#187 =( NAMED_UNIT ( * ) SI_UNIT ( $, .STERADIAN. ) SOLID_ANGLE_UNIT ( ) );
#188 = AXIS2_PLACEMENT_3D ( 'NONE', #46, #17, #182 ) ;
#189 = CARTESIAN_POINT ( 'NONE',  ( -7.488915485651357784, 0.000000000000000000, -68.59239130434782794 ) ) ;
#190 =( LENGTH_UNIT ( ) NAMED_UNIT ( * ) SI_UNIT ( .MILLI., .METRE. ) );
#191 = DIRECTION ( 'NONE',  ( 1.000000000000000000, 0.000000000000000000, 0.000000000000000000 ) ) ;
#192 = LINE ( 'NONE', #175, #44 ) ;
#193 = EDGE_CURVE ( 'NONE', #65, #180, #53, .T. ) ;
#194 = DIRECTION ( 'NONE',  ( 0.000000000000000000, 1.000000000000000000, 0.000000000000000000 ) ) ;
#195 = AXIS2_PLACEMENT_3D ( 'NONE', #159, #131, #15 ) ;
#196 = EDGE_LOOP ( 'NONE', ( #136, #100, #6, #10 ) ) ;
#197 = ORIENTED_EDGE ( 'NONE', *, *, #61, .T. ) ;
#198 = VECTOR ( 'NONE', #30, 1000.000000000000000 ) ;
#199 = CARTESIAN_POINT ( 'NONE',  ( 7.488915485651374659, 4.000000000000000000, -68.59239130434781373 ) ) ;
#200 = AXIS2_PLACEMENT_3D ( 'NONE', #96, #1, #149 ) ;
#201 = DIRECTION ( 'NONE',  ( 0.000000000000000000, 0.000000000000000000, 1.000000000000000000 ) ) ;
#202 = DIRECTION ( 'NONE',  ( 0.000000000000000000, -0.000000000000000000, 1.000000000000000000 ) ) ;
#203 = DIRECTION ( 'NONE',  ( 0.000000000000000000, 1.000000000000000000, 0.000000000000000000 ) ) ;
#204 = APPLICATION_CONTEXT ( 'automotive_design' ) ;
#205 = AXIS2_PLACEMENT_3D ( 'NONE', #59, #170, #78 ) ;
ENDSEC;
END-ISO-10303-21;
