ISO-10303-21;
HEADER;
FILE_DESCRIPTION (( 'STEP AP214' ),
    '1' );
FILE_NAME ('Tapa.STEP',
    '2026-09-17T22:06:39',
    ( '' ),
    ( '' ),
    'SwSTEP 2.0',
    'SolidWorks 2026',
    '' );
FILE_SCHEMA (( 'AUTOMOTIVE_DESIGN' ));
ENDSEC;

DATA;
#1 = EDGE_CURVE ( 'NONE', #170, #607, #210, .T. ) ;
#2 = EDGE_LOOP ( 'NONE', ( #60, #51 ) ) ;
#3 = ORIENTED_EDGE ( 'NONE', *, *, #238, .T. ) ;
#4 = ORIENTED_EDGE ( 'NONE', *, *, #544, .F. ) ;
#5 = CARTESIAN_POINT ( 'NONE',  ( 0.000000000000000000, 20.00000000000000000, 0.000000000000000000 ) ) ;
#6 = ORIENTED_EDGE ( 'NONE', *, *, #144, .F. ) ;
#7 = ORIENTED_EDGE ( 'NONE', *, *, #478, .T. ) ;
#8 = CIRCLE ( 'NONE', #485, 3.300000000000000711 ) ;
#9 = TOROIDAL_SURFACE ( 'NONE', #79, 110.0000000000000000, 2.600000000000003197 ) ;
#10 = FACE_OUTER_BOUND ( 'NONE', #507, .T. ) ;
#11 = PRESENTATION_STYLE_ASSIGNMENT (( #515 ) ) ;
#12 = DIRECTION ( 'NONE',  ( 0.000000000000000000, 0.000000000000000000, 1.000000000000000000 ) ) ;
#13 = FACE_OUTER_BOUND ( 'NONE', #43, .T. ) ;
#14 = EDGE_CURVE ( 'NONE', #170, #140, #388, .T. ) ;
#15 = PRODUCT ( 'Tapa', 'Tapa', '', ( #440 ) ) ;
#16 = AXIS2_PLACEMENT_3D ( 'NONE', #349, #409, #126 ) ;
#17 = PLANE ( 'NONE',  #580 ) ;
#18 = CARTESIAN_POINT ( 'NONE',  ( 1.438959988998139884E-14, 5.000000000000000000, -117.5000000000000000 ) ) ;
#19 = AXIS2_PLACEMENT_3D ( 'NONE', #116, #214, #396 ) ;
#20 = ADVANCED_FACE ( 'NONE', ( #281 ), #613, .F. ) ;
#21 = SURFACE_SIDE_STYLE ('',( #511 ) ) ;
#22 = FACE_OUTER_BOUND ( 'NONE', #103, .T. ) ;
#23 = DIRECTION ( 'NONE',  ( 0.000000000000000000, 1.000000000000000000, 0.000000000000000000 ) ) ;
#24 = PRODUCT_DEFINITION_SHAPE ( 'NONE', 'NONE',  #180 ) ;
#25 = CYLINDRICAL_SURFACE ( 'NONE', #387, 99.75000000000000000 ) ;
#26 = CARTESIAN_POINT ( 'NONE',  ( -70.00000000000000000, 20.00000000000000000, -8.572527594031472993E-15 ) ) ;
#27 = CARTESIAN_POINT ( 'NONE',  ( 0.000000000000000000, 5.000000000000000000, 0.000000000000000000 ) ) ;
#28 = EDGE_LOOP ( 'NONE', ( #222, #673, #366, #652 ) ) ;
#29 = CLOSED_SHELL ( 'NONE', ( #309, #177, #227, #293, #346, #20, #364, #566, #168, #498, #215, #160, #207, #691, #81, #534, #694, #492, #629, #575, #564, #683, #230 ) ) ;
#30 = EDGE_CURVE ( 'NONE', #500, #535, #622, .T. ) ;
#31 = LINE ( 'NONE', #633, #669 ) ;
#32 = DIRECTION ( 'NONE',  ( 0.000000000000000000, 1.000000000000000000, 0.000000000000000000 ) ) ;
#33 = EDGE_CURVE ( 'NONE', #500, #314, #712, .T. ) ;
#34 = EDGE_LOOP ( 'NONE', ( #150, #122 ) ) ;
#35 = DIRECTION ( 'NONE',  ( 0.000000000000000000, -1.000000000000000000, 0.000000000000000000 ) ) ;
#36 = PLANE ( 'NONE',  #569 ) ;
#37 = CIRCLE ( 'NONE', #62, 99.75000000000000000 ) ;
#38 = ORIENTED_EDGE ( 'NONE', *, *, #512, .T. ) ;
#39 = DIRECTION ( 'NONE',  ( 0.000000000000000000, 0.000000000000000000, 1.000000000000000000 ) ) ;
#40 = DIRECTION ( 'NONE',  ( -0.000000000000000000, -1.000000000000000000, -0.000000000000000000 ) ) ;
#41 = EDGE_CURVE ( 'NONE', #607, #170, #551, .T. ) ;
#42 = EDGE_LOOP ( 'NONE', ( #63, #319, #437, #58 ) ) ;
#43 = EDGE_LOOP ( 'NONE', ( #269, #335, #313, #487 ) ) ;
#44 = DIRECTION ( 'NONE',  ( -1.000000000000000000, 0.000000000000000000, 0.000000000000000000 ) ) ;
#45 = FACE_OUTER_BOUND ( 'NONE', #338, .T. ) ;
#46 = EDGE_LOOP ( 'NONE', ( #175, #327, #659, #645 ) ) ;
#47 = CARTESIAN_POINT ( 'NONE',  ( -70.00000000000000000, 20.00000000000000000, -6.400000000000016342 ) ) ;
#48 = VECTOR ( 'NONE', #627, 1000.000000000000000 ) ;
#49 = DIRECTION ( 'NONE',  ( 0.000000000000000000, 0.000000000000000000, 1.000000000000000000 ) ) ;
#50 = AXIS2_PLACEMENT_3D ( 'NONE', #129, #402, #460 ) ;
#51 = ORIENTED_EDGE ( 'NONE', *, *, #276, .F. ) ;
#52 = DIRECTION ( 'NONE',  ( 0.000000000000000000, -0.000000000000000000, 1.000000000000000000 ) ) ;
#53 = EDGE_CURVE ( 'NONE', #341, #382, #619, .T. ) ;
#54 = VERTEX_POINT ( 'NONE', #449 ) ;
#55 = DIRECTION ( 'NONE',  ( 0.000000000000000000, 0.000000000000000000, -1.000000000000000000 ) ) ;
#56 =( GEOMETRIC_REPRESENTATION_CONTEXT ( 3 ) GLOBAL_UNCERTAINTY_ASSIGNED_CONTEXT ( ( #273 ) ) GLOBAL_UNIT_ASSIGNED_CONTEXT ( ( #234, #707, #595 ) ) REPRESENTATION_CONTEXT ( 'NONE', 'WORKASPACE' ) );
#57 = PRODUCT_RELATED_PRODUCT_CATEGORY ( 'part', '', ( #15 ) ) ;
#58 = ORIENTED_EDGE ( 'NONE', *, *, #441, .T. ) ;
#59 = DIRECTION ( 'NONE',  ( 0.000000000000000000, 1.000000000000000000, 0.000000000000000000 ) ) ;
#60 = ORIENTED_EDGE ( 'NONE', *, *, #117, .F. ) ;
#61 = PLANE ( 'NONE',  #612 ) ;
#62 = AXIS2_PLACEMENT_3D ( 'NONE', #528, #32, #423 ) ;
#63 = ORIENTED_EDGE ( 'NONE', *, *, #512, .F. ) ;
#64 = CARTESIAN_POINT ( 'NONE',  ( 0.000000000000000000, 20.00000000000000000, -90.00000000000001421 ) ) ;
#65 = EDGE_LOOP ( 'NONE', ( #713, #115 ) ) ;
#66 = CARTESIAN_POINT ( 'NONE',  ( 0.000000000000000000, 0.000000000000000000, 0.000000000000000000 ) ) ;
#67 = PLANE ( 'NONE',  #356 ) ;
#68 = CARTESIAN_POINT ( 'NONE',  ( 0.000000000000000000, 10.00000000000000000, -99.75000000000000000 ) ) ;
#69 = FACE_BOUND ( 'NONE', #381, .T. ) ;
#70 = CARTESIAN_POINT ( 'NONE',  ( 0.000000000000000000, 10.00000000000000000, 0.000000000000000000 ) ) ;
#71 = FACE_OUTER_BOUND ( 'NONE', #46, .T. ) ;
#72 = DIRECTION ( 'NONE',  ( 0.000000000000000000, 0.000000000000000000, 1.000000000000000000 ) ) ;
#73 = DIRECTION ( 'NONE',  ( 0.000000000000000000, -0.000000000000000000, 1.000000000000000000 ) ) ;
#74 = CARTESIAN_POINT ( 'NONE',  ( -70.00000000000000000, 20.00000000000000000, -8.572527594031472993E-15 ) ) ;
#75 = FACE_OUTER_BOUND ( 'NONE', #166, .T. ) ;
#76 = CIRCLE ( 'NONE', #355, 7.400000000000000355 ) ;
#77 = AXIS2_PLACEMENT_3D ( 'NONE', #655, #157, #372 ) ;
#78 = CYLINDRICAL_SURFACE ( 'NONE', #300, 6.400000000000007461 ) ;
#79 = AXIS2_PLACEMENT_3D ( 'NONE', #70, #406, #188 ) ;
#80 = CARTESIAN_POINT ( 'NONE',  ( 0.000000000000000000, 0.000000000000000000, 0.000000000000000000 ) ) ;
#81 = ADVANCED_FACE ( 'NONE', ( #336, #268 ), #61, .T. ) ;
#82 = EDGE_LOOP ( 'NONE', ( #119, #475 ) ) ;
#83 = DIRECTION ( 'NONE',  ( 1.224646799147349509E-16, 0.000000000000000000, -1.000000000000000000 ) ) ;
#84 = CARTESIAN_POINT ( 'NONE',  ( 0.000000000000000000, 20.00000000000000000, 0.000000000000000000 ) ) ;
#85 = VECTOR ( 'NONE', #330, 1000.000000000000000 ) ;
#86 = CIRCLE ( 'NONE', #145, 122.5000000000000000 ) ;
#87 = CARTESIAN_POINT ( 'NONE',  ( 0.000000000000000000, 20.00000000000000000, 0.000000000000000000 ) ) ;
#88 = FACE_BOUND ( 'NONE', #536, .T. ) ;
#89 = ORIENTED_EDGE ( 'NONE', *, *, #425, .F. ) ;
#90 = ORIENTED_EDGE ( 'NONE', *, *, #503, .T. ) ;
#91 = CARTESIAN_POINT ( 'NONE',  ( 2.449293598294706907E-15, 0.000000000000000000, -23.30000000000000071 ) ) ;
#92 = EDGE_CURVE ( 'NONE', #667, #271, #426, .T. ) ;
#93 = FACE_OUTER_BOUND ( 'NONE', #671, .T. ) ;
#94 = ORIENTED_EDGE ( 'NONE', *, *, #276, .T. ) ;
#95 = VECTOR ( 'NONE', #378, 1000.000000000000000 ) ;
#96 = ORIENTED_EDGE ( 'NONE', *, *, #121, .F. ) ;
#97 = CARTESIAN_POINT ( 'NONE',  ( 2.449293598294706907E-15, 0.000000000000000000, -20.00000000000000000 ) ) ;
#98 = EDGE_CURVE ( 'NONE', #205, #596, #608, .T. ) ;
#99 = DIRECTION ( 'NONE',  ( 0.000000000000000000, 0.000000000000000000, 1.000000000000000000 ) ) ;
#100 = ORIENTED_EDGE ( 'NONE', *, *, #413, .F. ) ;
#101 = LINE ( 'NONE', #323, #637 ) ;
#102 = LINE ( 'NONE', #531, #95 ) ;
#103 = EDGE_LOOP ( 'NONE', ( #258, #90 ) ) ;
#104 = AXIS2_PLACEMENT_3D ( 'NONE', #87, #422, #697 ) ;
#105 = AXIS2_PLACEMENT_3D ( 'NONE', #597, #593, #147 ) ;
#106 = CIRCLE ( 'NONE', #287, 99.75000000000000000 ) ;
#107 = EDGE_LOOP ( 'NONE', ( #603, #371, #318, #443 ) ) ;
#108 = DIRECTION ( 'NONE',  ( 0.000000000000000000, -1.000000000000000000, 0.000000000000000000 ) ) ;
#109 = EDGE_CURVE ( 'NONE', #161, #532, #549, .T. ) ;
#110 =( NAMED_UNIT ( * ) PLANE_ANGLE_UNIT ( ) SI_UNIT ( $, .RADIAN. ) );
#111 = ORIENTED_EDGE ( 'NONE', *, *, #362, .T. ) ;
#112 = CARTESIAN_POINT ( 'NONE',  ( 0.000000000000000000, 20.00000000000000000, 0.000000000000000000 ) ) ;
#113 = STYLED_ITEM ( 'NONE', ( #11 ), #568 ) ;
#114 = VECTOR ( 'NONE', #120, 1000.000000000000000 ) ;
#115 = ORIENTED_EDGE ( 'NONE', *, *, #478, .F. ) ;
#116 = CARTESIAN_POINT ( 'NONE',  ( 2.449293598294706907E-15, 10.00000000000000000, -20.00000000000000000 ) ) ;
#117 = EDGE_CURVE ( 'NONE', #205, #280, #203, .T. ) ;
#118 = APPLICATION_PROTOCOL_DEFINITION ( 'draft international standard', 'automotive_design', 1998, #700 ) ;
#119 = ORIENTED_EDGE ( 'NONE', *, *, #439, .F. ) ;
#120 = DIRECTION ( 'NONE',  ( -0.000000000000000000, -1.000000000000000000, -0.000000000000000000 ) ) ;
#121 = EDGE_CURVE ( 'NONE', #271, #667, #235, .T. ) ;
#122 = ORIENTED_EDGE ( 'NONE', *, *, #702, .T. ) ;
#123 = CARTESIAN_POINT ( 'NONE',  ( 70.00000000000000000, 20.00000000000000000, -6.400000000000007461 ) ) ;
#124 = FACE_BOUND ( 'NONE', #82, .T. ) ;
#125 = CARTESIAN_POINT ( 'NONE',  ( -2.449293598294706907E-15, 10.00000000000000000, 12.59999999999999964 ) ) ;
#126 = DIRECTION ( 'NONE',  ( 0.000000000000000000, 0.000000000000000000, -1.000000000000000000 ) ) ;
#127 = DIRECTION ( 'NONE',  ( 0.000000000000000000, 0.000000000000000000, -1.000000000000000000 ) ) ;
#128 = FACE_OUTER_BOUND ( 'NONE', #107, .T. ) ;
#129 = CARTESIAN_POINT ( 'NONE',  ( 0.000000000000000000, 10.00000000000000000, 0.000000000000000000 ) ) ;
#130 = CARTESIAN_POINT ( 'NONE',  ( 1.102182119232618069E-14, 10.00000000000000000, 90.00000000000001421 ) ) ;
#131 = CARTESIAN_POINT ( 'NONE',  ( 1.347111479062088681E-14, 10.00000000000000000, -107.3999999999999915 ) ) ;
#132 = CARTESIAN_POINT ( 'NONE',  ( 2.449293598294706907E-15, 20.00000000000000000, -20.00000000000000000 ) ) ;
#133 = DIRECTION ( 'NONE',  ( -0.000000000000000000, -1.000000000000000000, -0.000000000000000000 ) ) ;
#134 = TOROIDAL_SURFACE ( 'NONE', #600, 117.5000000000000000, 5.000000000000000000 ) ;
#135 = EDGE_LOOP ( 'NONE', ( #546, #651, #588, #696 ) ) ;
#136 = VECTOR ( 'NONE', #260, 1000.000000000000000 ) ;
#137 = CARTESIAN_POINT ( 'NONE',  ( 0.000000000000000000, 10.00000000000000000, 0.000000000000000000 ) ) ;
#138 = AXIS2_PLACEMENT_3D ( 'NONE', #26, #631, #240 ) ;
#139 = DIRECTION ( 'NONE',  ( 0.000000000000000000, 1.000000000000000000, 0.000000000000000000 ) ) ;
#140 = VERTEX_POINT ( 'NONE', #288 ) ;
#141 = CARTESIAN_POINT ( 'NONE',  ( 1.500192328955507774E-14, 10.00000000000000000, 122.5000000000000000 ) ) ;
#142 = DIRECTION ( 'NONE',  ( 0.000000000000000000, 0.000000000000000000, -1.000000000000000000 ) ) ;
#143 = VERTEX_POINT ( 'NONE', #351 ) ;
#144 = EDGE_CURVE ( 'NONE', #535, #554, #486, .T. ) ;
#145 = AXIS2_PLACEMENT_3D ( 'NONE', #479, #139, #99 ) ;
#146 = ORIENTED_EDGE ( 'NONE', *, *, #459, .T. ) ;
#147 = DIRECTION ( 'NONE',  ( 0.000000000000000000, 0.000000000000000000, -1.000000000000000000 ) ) ;
#148 = AXIS2_PLACEMENT_3D ( 'NONE', #165, #223, #617 ) ;
#149 = FACE_OUTER_BOUND ( 'NONE', #42, .T. ) ;
#150 = ORIENTED_EDGE ( 'NONE', *, *, #620, .T. ) ;
#151 = EDGE_CURVE ( 'NONE', #194, #664, #616, .T. ) ;
#152 = VERTEX_POINT ( 'NONE', #513 ) ;
#153 = FACE_BOUND ( 'NONE', #367, .T. ) ;
#154 = DIRECTION ( 'NONE',  ( 0.000000000000000000, 0.000000000000000000, 1.000000000000000000 ) ) ;
#155 = CIRCLE ( 'NONE', #558, 107.3999999999999915 ) ;
#156 = EDGE_LOOP ( 'NONE', ( #249, #38, #7, #555 ) ) ;
#157 = DIRECTION ( 'NONE',  ( 0.000000000000000000, 1.000000000000000000, 0.000000000000000000 ) ) ;
#158 = DIRECTION ( 'NONE',  ( 0.000000000000000000, 1.000000000000000000, 0.000000000000000000 ) ) ;
#159 = ORIENTED_EDGE ( 'NONE', *, *, #474, .F. ) ;
#160 = ADVANCED_FACE ( 'NONE', ( #342, #630, #181, #674, #22 ), #17, .F. ) ;
#161 = VERTEX_POINT ( 'NONE', #236 ) ;
#162 = DIRECTION ( 'NONE',  ( 0.000000000000000000, 0.000000000000000000, -1.000000000000000000 ) ) ;
#163 = DIRECTION ( 'NONE',  ( 1.000000000000000000, 0.000000000000000000, 0.000000000000000000 ) ) ;
#164 = VERTEX_POINT ( 'NONE', #125 ) ;
#165 = CARTESIAN_POINT ( 'NONE',  ( -2.449293598294706907E-15, 0.000000000000000000, 20.00000000000000000 ) ) ;
#166 = EDGE_LOOP ( 'NONE', ( #386, #253 ) ) ;
#167 = DIRECTION ( 'NONE',  ( 0.000000000000000000, 0.000000000000000000, 1.000000000000000000 ) ) ;
#168 = ADVANCED_FACE ( 'NONE', ( #509 ), #231, .T. ) ;
#169 = ORIENTED_EDGE ( 'NONE', *, *, #121, .T. ) ;
#170 = VERTEX_POINT ( 'NONE', #570 ) ;
#171 = AXIS2_PLACEMENT_3D ( 'NONE', #461, #289, #247 ) ;
#172 = VECTOR ( 'NONE', #435, 1000.000000000000000 ) ;
#173 = AXIS2_PLACEMENT_3D ( 'NONE', #623, #562, #680 ) ;
#174 = ORIENTED_EDGE ( 'NONE', *, *, #254, .F. ) ;
#175 = ORIENTED_EDGE ( 'NONE', *, *, #503, .F. ) ;
#176 = CARTESIAN_POINT ( 'NONE',  ( -2.449293598294706907E-15, 20.00000000000000000, 20.00000000000000000 ) ) ;
#177 = ADVANCED_FACE ( 'NONE', ( #344 ), #457, .F. ) ;
#178 = AXIS2_PLACEMENT_3D ( 'NONE', #523, #229, #686 ) ;
#179 = DIRECTION ( 'NONE',  ( 0.000000000000000000, 1.000000000000000000, 0.000000000000000000 ) ) ;
#180 = PRODUCT_DEFINITION ( 'UNKNOWN', '', #408, #340 ) ;
#181 = FACE_BOUND ( 'NONE', #714, .T. ) ;
#182 = DIRECTION ( 'NONE',  ( 0.000000000000000000, 0.000000000000000000, 1.000000000000000000 ) ) ;
#183 = CARTESIAN_POINT ( 'NONE',  ( 70.00000000000000000, 10.00000000000000000, 6.400000000000007461 ) ) ;
#184 = CARTESIAN_POINT ( 'NONE',  ( -70.00000000000000000, 10.00000000000000000, -8.572527594031472993E-15 ) ) ;
#185 = DIRECTION ( 'NONE',  ( 0.000000000000000000, 1.000000000000000000, 0.000000000000000000 ) ) ;
#186 = DIRECTION ( 'NONE',  ( -0.000000000000000000, -1.000000000000000000, -0.000000000000000000 ) ) ;
#187 = TOROIDAL_SURFACE ( 'NONE', #278, 117.5000000000000000, 5.000000000000000000 ) ;
#188 = DIRECTION ( 'NONE',  ( 0.000000000000000000, 0.000000000000000000, 1.000000000000000000 ) ) ;
#189 = CARTESIAN_POINT ( 'NONE',  ( -2.449293598294706907E-15, 20.00000000000000000, 12.59999999999999964 ) ) ;
#190 = LINE ( 'NONE', #462, #48 ) ;
#191 = DIRECTION ( 'NONE',  ( 0.000000000000000000, 0.000000000000000000, 1.000000000000000000 ) ) ;
#192 = DIRECTION ( 'NONE',  ( 0.000000000000000000, 1.000000000000000000, 0.000000000000000000 ) ) ;
#193 = CIRCLE ( 'NONE', #171, 117.5000000000000000 ) ;
#194 = VERTEX_POINT ( 'NONE', #68 ) ;
#195 = AXIS2_PLACEMENT_3D ( 'NONE', #695, #533, #39 ) ;
#196 = DIRECTION ( 'NONE',  ( 0.000000000000000000, 0.000000000000000000, 1.000000000000000000 ) ) ;
#197 = CARTESIAN_POINT ( 'NONE',  ( 0.000000000000000000, 10.00000000000000000, 0.000000000000000000 ) ) ;
#198 = EDGE_LOOP ( 'NONE', ( #274, #693 ) ) ;
#199 = FACE_OUTER_BOUND ( 'NONE', #448, .T. ) ;
#200 = EDGE_LOOP ( 'NONE', ( #96, #708 ) ) ;
#201 = DIRECTION ( 'NONE',  ( -0.000000000000000000, -1.000000000000000000, -0.000000000000000000 ) ) ;
#202 = EDGE_CURVE ( 'NONE', #504, #161, #328, .T. ) ;
#203 = CIRCLE ( 'NONE', #295, 90.00000000000001421 ) ;
#204 = CARTESIAN_POINT ( 'NONE',  ( 1.221585182149484838E-14, 10.00000000000000000, 99.75000000000000000 ) ) ;
#205 = VERTEX_POINT ( 'NONE', #625 ) ;
#206 = DIRECTION ( 'NONE',  ( 0.000000000000000000, 0.000000000000000000, 1.000000000000000000 ) ) ;
#207 = ADVANCED_FACE ( 'NONE', ( #10 ), #9, .F. ) ;
#208 = ORIENTED_EDGE ( 'NONE', *, *, #92, .T. ) ;
#209 = CARTESIAN_POINT ( 'NONE',  ( 0.000000000000000000, 5.000000000000000000, 117.5000000000000000 ) ) ;
#210 = CIRCLE ( 'NONE', #436, 3.300000000000000711 ) ;
#211 = ORIENTED_EDGE ( 'NONE', *, *, #151, .F. ) ;
#212 = CARTESIAN_POINT ( 'NONE',  ( 0.000000000000000000, 20.00000000000000000, 0.000000000000000000 ) ) ;
#213 = VERTEX_POINT ( 'NONE', #347 ) ;
#214 = DIRECTION ( 'NONE',  ( 0.000000000000000000, 1.000000000000000000, 0.000000000000000000 ) ) ;
#215 = ADVANCED_FACE ( 'NONE', ( #297 ), #521, .T. ) ;
#216 = ORIENTED_EDGE ( 'NONE', *, *, #663, .T. ) ;
#217 = AXIS2_PLACEMENT_3D ( 'NONE', #197, #192, #49 ) ;
#218 = ORIENTED_EDGE ( 'NONE', *, *, #299, .F. ) ;
#219 = EDGE_CURVE ( 'NONE', #529, #341, #394, .T. ) ;
#220 = ORIENTED_EDGE ( 'NONE', *, *, #606, .F. ) ;
#221 = DIRECTION ( 'NONE',  ( 0.000000000000000000, 1.000000000000000000, 0.000000000000000000 ) ) ;
#222 = ORIENTED_EDGE ( 'NONE', *, *, #109, .F. ) ;
#223 = DIRECTION ( 'NONE',  ( 0.000000000000000000, -1.000000000000000000, 0.000000000000000000 ) ) ;
#224 = AXIS2_PLACEMENT_3D ( 'NONE', #18, #583, #83 ) ;
#225 = AXIS2_PLACEMENT_3D ( 'NONE', #80, #186, #286 ) ;
#226 = AXIS2_PLACEMENT_3D ( 'NONE', #132, #410, #681 ) ;
#227 = ADVANCED_FACE ( 'NONE', ( #298 ), #690, .F. ) ;
#228 = DIRECTION ( 'NONE',  ( -0.000000000000000000, -1.000000000000000000, -0.000000000000000000 ) ) ;
#229 = DIRECTION ( 'NONE',  ( -0.000000000000000000, -1.000000000000000000, -0.000000000000000000 ) ) ;
#230 = ADVANCED_FACE ( 'NONE', ( #522 ), #354, .F. ) ;
#231 = CYLINDRICAL_SURFACE ( 'NONE', #50, 122.5000000000000000 ) ;
#232 = DIRECTION ( 'NONE',  ( 0.000000000000000000, 0.000000000000000000, -1.000000000000000000 ) ) ;
#233 = TOROIDAL_SURFACE ( 'NONE', #648, 110.0000000000000000, 2.600000000000003197 ) ;
#234 =( LENGTH_UNIT ( ) NAMED_UNIT ( * ) SI_UNIT ( .MILLI., .METRE. ) );
#235 = CIRCLE ( 'NONE', #334, 7.400000000000000355 ) ;
#236 = CARTESIAN_POINT ( 'NONE',  ( -70.00000000000000000, 10.00000000000000000, 6.399999999999998579 ) ) ;
#237 = CARTESIAN_POINT ( 'NONE',  ( -2.449293598294706907E-15, 0.000000000000000000, 12.59999999999999964 ) ) ;
#238 = EDGE_CURVE ( 'NONE', #596, #259, #602, .T. ) ;
#239 = DIRECTION ( 'NONE',  ( -0.000000000000000000, -1.000000000000000000, -0.000000000000000000 ) ) ;
#240 = DIRECTION ( 'NONE',  ( 0.000000000000000000, 0.000000000000000000, -1.000000000000000000 ) ) ;
#241 = FACE_BOUND ( 'NONE', #701, .T. ) ;
#242 = AXIS2_PLACEMENT_3D ( 'NONE', #649, #416, #429 ) ;
#243 = EDGE_CURVE ( 'NONE', #664, #194, #106, .T. ) ;
#244 = CARTESIAN_POINT ( 'NONE',  ( 0.000000000000000000, 5.000000000000000000, 0.000000000000000000 ) ) ;
#245 = CARTESIAN_POINT ( 'NONE',  ( 70.00000000000000000, 0.000000000000000000, 6.400000000000007461 ) ) ;
#246 = ORIENTED_EDGE ( 'NONE', *, *, #312, .F. ) ;
#247 = DIRECTION ( 'NONE',  ( 0.000000000000000000, 0.000000000000000000, 1.000000000000000000 ) ) ;
#248 = DIRECTION ( 'NONE',  ( 0.000000000000000000, 0.000000000000000000, 1.000000000000000000 ) ) ;
#249 = ORIENTED_EDGE ( 'NONE', *, *, #439, .T. ) ;
#250 = DIRECTION ( 'NONE',  ( 0.000000000000000000, 0.000000000000000000, -1.000000000000000000 ) ) ;
#251 = CYLINDRICAL_SURFACE ( 'NONE', #252, 90.00000000000001421 ) ;
#252 = AXIS2_PLACEMENT_3D ( 'NONE', #84, #473, #307 ) ;
#253 = ORIENTED_EDGE ( 'NONE', *, *, #610, .T. ) ;
#254 = EDGE_CURVE ( 'NONE', #480, #667, #31, .T. ) ;
#255 = ORIENTED_EDGE ( 'NONE', *, *, #33, .F. ) ;
#256 = LINE ( 'NONE', #488, #172 ) ;
#257 = CARTESIAN_POINT ( 'NONE',  ( 2.449293598294706907E-15, 10.00000000000000000, -23.30000000000000071 ) ) ;
#258 = ORIENTED_EDGE ( 'NONE', *, *, #282, .T. ) ;
#259 = VERTEX_POINT ( 'NONE', #130 ) ;
#260 = DIRECTION ( 'NONE',  ( -0.000000000000000000, -1.000000000000000000, -0.000000000000000000 ) ) ;
#261 = DIRECTION ( 'NONE',  ( -0.000000000000000000, -1.000000000000000000, -0.000000000000000000 ) ) ;
#262 = AXIS2_PLACEMENT_3D ( 'NONE', #352, #469, #232 ) ;
#263 = AXIS2_PLACEMENT_3D ( 'NONE', #530, #35, #250 ) ;
#264 = ORIENTED_EDGE ( 'NONE', *, *, #41, .T. ) ;
#265 = DIRECTION ( 'NONE',  ( 0.000000000000000000, 1.000000000000000000, 0.000000000000000000 ) ) ;
#266 = CARTESIAN_POINT ( 'NONE',  ( -1.543054966925665470E-15, 0.000000000000000000, 27.40000000000000213 ) ) ;
#267 = ORIENTED_EDGE ( 'NONE', *, *, #489, .F. ) ;
#268 = FACE_BOUND ( 'NONE', #2, .T. ) ;
#269 = ORIENTED_EDGE ( 'NONE', *, *, #202, .T. ) ;
#270 = PRESENTATION_LAYER_ASSIGNMENT (  '', '', ( #113 ) ) ;
#271 = VERTEX_POINT ( 'NONE', #237 ) ;
#272 = EDGE_CURVE ( 'NONE', #213, #532, #577, .T. ) ;
#273 = UNCERTAINTY_MEASURE_WITH_UNIT (LENGTH_MEASURE( 1.000000000000000082E-05 ), #234, 'distance_accuracy_value', 'NONE');
#274 = ORIENTED_EDGE ( 'NONE', *, *, #272, .F. ) ;
#275 = ORIENTED_EDGE ( 'NONE', *, *, #243, .F. ) ;
#276 = EDGE_CURVE ( 'NONE', #280, #205, #483, .T. ) ;
#277 = ORIENTED_EDGE ( 'NONE', *, *, #553, .T. ) ;
#278 = AXIS2_PLACEMENT_3D ( 'NONE', #365, #584, #248 ) ;
#279 = EDGE_LOOP ( 'NONE', ( #89, #218 ) ) ;
#280 = VERTEX_POINT ( 'NONE', #363 ) ;
#281 = FACE_OUTER_BOUND ( 'NONE', #585, .T. ) ;
#282 = EDGE_CURVE ( 'NONE', #152, #550, #193, .T. ) ;
#283 = ORIENTED_EDGE ( 'NONE', *, *, #447, .T. ) ;
#284 = DIRECTION ( 'NONE',  ( 0.000000000000000000, 1.000000000000000000, 0.000000000000000000 ) ) ;
#285 = CIRCLE ( 'NONE', #77, 7.400000000000000355 ) ;
#286 = DIRECTION ( 'NONE',  ( 0.000000000000000000, 0.000000000000000000, 1.000000000000000000 ) ) ;
#287 = AXIS2_PLACEMENT_3D ( 'NONE', #137, #185, #407 ) ;
#288 = CARTESIAN_POINT ( 'NONE',  ( 2.853427042013333212E-15, 0.000000000000000000, -16.69999999999999929 ) ) ;
#289 = DIRECTION ( 'NONE',  ( -0.000000000000000000, -1.000000000000000000, -0.000000000000000000 ) ) ;
#290 = DIRECTION ( 'NONE',  ( 0.000000000000000000, -0.000000000000000000, 1.000000000000000000 ) ) ;
#291 = CARTESIAN_POINT ( 'NONE',  ( 0.000000000000000000, 10.00000000000000000, 0.000000000000000000 ) ) ;
#292 = CARTESIAN_POINT ( 'NONE',  ( -70.00000000000000000, 0.000000000000000000, -8.572527594031472993E-15 ) ) ;
#293 = ADVANCED_FACE ( 'NONE', ( #419 ), #642, .F. ) ;
#294 = CIRCLE ( 'NONE', #16, 3.300000000000000711 ) ;
#295 = AXIS2_PLACEMENT_3D ( 'NONE', #212, #59, #438 ) ;
#296 = ADVANCED_BREP_SHAPE_REPRESENTATION ( 'Tapa', ( #568, #317 ), #628 ) ;
#297 = FACE_OUTER_BOUND ( 'NONE', #446, .T. ) ;
#298 = FACE_OUTER_BOUND ( 'NONE', #494, .T. ) ;
#299 = EDGE_CURVE ( 'NONE', #480, #164, #76, .T. ) ;
#300 = AXIS2_PLACEMENT_3D ( 'NONE', #74, #685, #458 ) ;
#301 = DIRECTION ( 'NONE',  ( 0.000000000000000000, -0.000000000000000000, 1.000000000000000000 ) ) ;
#302 = CARTESIAN_POINT ( 'NONE',  ( 0.000000000000000000, 10.00000000000000000, 0.000000000000000000 ) ) ;
#303 = CARTESIAN_POINT ( 'NONE',  ( 0.000000000000000000, 10.00000000000000000, 107.3999999999999915 ) ) ;
#304 = ORIENTED_EDGE ( 'NONE', *, *, #202, .F. ) ;
#305 = CARTESIAN_POINT ( 'NONE',  ( 0.000000000000000000, 10.00000000000000000, 0.000000000000000000 ) ) ;
#306 = AXIS2_PLACEMENT_3D ( 'NONE', #560, #393, #162 ) ;
#307 = DIRECTION ( 'NONE',  ( 0.000000000000000000, 0.000000000000000000, -1.000000000000000000 ) ) ;
#308 = ORIENTED_EDGE ( 'NONE', *, *, #413, .T. ) ;
#309 = ADVANCED_FACE ( 'NONE', ( #13 ), #78, .F. ) ;
#310 = DIRECTION ( 'NONE',  ( -0.000000000000000000, -1.000000000000000000, -0.000000000000000000 ) ) ;
#311 = CARTESIAN_POINT ( 'NONE',  ( 0.000000000000000000, 10.00000000000000000, 0.000000000000000000 ) ) ;
#312 = EDGE_CURVE ( 'NONE', #164, #271, #626, .T. ) ;
#313 = ORIENTED_EDGE ( 'NONE', *, *, #672, .T. ) ;
#314 = VERTEX_POINT ( 'NONE', #403 ) ;
#315 = LINE ( 'NONE', #653, #136 ) ;
#316 = DIRECTION ( 'NONE',  ( 0.000000000000000000, 1.000000000000000000, 0.000000000000000000 ) ) ;
#317 = AXIS2_PLACEMENT_3D ( 'NONE', #383, #605, #163 ) ;
#318 = ORIENTED_EDGE ( 'NONE', *, *, #647, .T. ) ;
#319 = ORIENTED_EDGE ( 'NONE', *, *, #219, .T. ) ;
#320 = DIRECTION ( 'NONE',  ( 0.000000000000000000, 0.000000000000000000, 1.000000000000000000 ) ) ;
#321 = DIRECTION ( 'NONE',  ( 0.000000000000000000, 0.000000000000000000, 1.000000000000000000 ) ) ;
#322 = VERTEX_POINT ( 'NONE', #141 ) ;
#323 = CARTESIAN_POINT ( 'NONE',  ( 2.449293598294706907E-15, 20.00000000000000000, -23.30000000000000071 ) ) ;
#324 = CARTESIAN_POINT ( 'NONE',  ( 0.000000000000000000, 10.00000000000000000, -90.00000000000001421 ) ) ;
#325 = VECTOR ( 'NONE', #678, 1000.000000000000000 ) ;
#326 = CIRCLE ( 'NONE', #263, 6.400000000000007461 ) ;
#327 = ORIENTED_EDGE ( 'NONE', *, *, #350, .T. ) ;
#328 = CIRCLE ( 'NONE', #510, 6.400000000000007461 ) ;
#329 = ORIENTED_EDGE ( 'NONE', *, *, #33, .T. ) ;
#330 = DIRECTION ( 'NONE',  ( -0.000000000000000000, -1.000000000000000000, -0.000000000000000000 ) ) ;
#331 = VERTEX_POINT ( 'NONE', #586 ) ;
#332 = CIRCLE ( 'NONE', #424, 122.5000000000000000 ) ;
#333 = DIRECTION ( 'NONE',  ( 0.000000000000000000, 0.000000000000000000, -1.000000000000000000 ) ) ;
#334 = AXIS2_PLACEMENT_3D ( 'NONE', #660, #108, #55 ) ;
#335 = ORIENTED_EDGE ( 'NONE', *, *, #109, .T. ) ;
#336 = FACE_OUTER_BOUND ( 'NONE', #34, .T. ) ;
#337 = ORIENTED_EDGE ( 'NONE', *, *, #362, .F. ) ;
#338 = EDGE_LOOP ( 'NONE', ( #174, #358, #599, #169 ) ) ;
#339 = EDGE_CURVE ( 'NONE', #259, #596, #450, .T. ) ;
#340 = PRODUCT_DEFINITION_CONTEXT ( 'detailed design', #700, 'design' ) ;
#341 = VERTEX_POINT ( 'NONE', #571 ) ;
#342 = FACE_BOUND ( 'NONE', #198, .T. ) ;
#343 = FILL_AREA_STYLE ('',( #621 ) ) ;
#344 = FACE_OUTER_BOUND ( 'NONE', #496, .T. ) ;
#345 = CARTESIAN_POINT ( 'NONE',  ( 0.000000000000000000, 10.00000000000000000, 0.000000000000000000 ) ) ;
#346 = ADVANCED_FACE ( 'NONE', ( #71 ), #134, .T. ) ;
#347 = CARTESIAN_POINT ( 'NONE',  ( -70.00000000000000000, 0.000000000000000000, -6.400000000000016342 ) ) ;
#348 = DIRECTION ( 'NONE',  ( -0.000000000000000000, -1.000000000000000000, -0.000000000000000000 ) ) ;
#349 = CARTESIAN_POINT ( 'NONE',  ( 2.449293598294706907E-15, 0.000000000000000000, -20.00000000000000000 ) ) ;
#350 = EDGE_CURVE ( 'NONE', #550, #421, #614, .T. ) ;
#351 = CARTESIAN_POINT ( 'NONE',  ( 1.221585182149484838E-14, 20.00000000000000000, 99.75000000000000000 ) ) ;
#352 = CARTESIAN_POINT ( 'NONE',  ( 70.00000000000000000, 20.00000000000000000, 0.000000000000000000 ) ) ;
#353 = DIRECTION ( 'NONE',  ( 0.000000000000000000, 1.000000000000000000, 0.000000000000000000 ) ) ;
#354 = CYLINDRICAL_SURFACE ( 'NONE', #138, 6.400000000000007461 ) ;
#355 = AXIS2_PLACEMENT_3D ( 'NONE', #574, #464, #191 ) ;
#356 = AXIS2_PLACEMENT_3D ( 'NONE', #581, #397, #290 ) ;
#357 = DIRECTION ( 'NONE',  ( -0.000000000000000000, -1.000000000000000000, -0.000000000000000000 ) ) ;
#358 = ORIENTED_EDGE ( 'NONE', *, *, #299, .T. ) ;
#359 = AXIS2_PLACEMENT_3D ( 'NONE', #516, #455, #526 ) ;
#360 = DIRECTION ( 'NONE',  ( 0.000000000000000000, 0.000000000000000000, 1.000000000000000000 ) ) ;
#361 = CARTESIAN_POINT ( 'NONE',  ( -2.449293598294706907E-15, 20.00000000000000000, 20.00000000000000000 ) ) ;
#362 = EDGE_CURVE ( 'NONE', #554, #314, #390, .T. ) ;
#363 = CARTESIAN_POINT ( 'NONE',  ( 1.102182119232618069E-14, 20.00000000000000000, 90.00000000000001421 ) ) ;
#364 = ADVANCED_FACE ( 'NONE', ( #199 ), #646, .T. ) ;
#365 = CARTESIAN_POINT ( 'NONE',  ( 0.000000000000000000, 5.000000000000000000, 0.000000000000000000 ) ) ;
#366 = ORIENTED_EDGE ( 'NONE', *, *, #377, .T. ) ;
#367 = EDGE_LOOP ( 'NONE', ( #304, #657 ) ) ;
#368 = DIRECTION ( 'NONE',  ( -0.000000000000000000, -1.000000000000000000, -0.000000000000000000 ) ) ;
#369 = CARTESIAN_POINT ( 'NONE',  ( 0.000000000000000000, 20.00000000000000000, 0.000000000000000000 ) ) ;
#370 = EDGE_LOOP ( 'NONE', ( #615, #329, #216, #6 ) ) ;
#371 = ORIENTED_EDGE ( 'NONE', *, *, #620, .F. ) ;
#372 = DIRECTION ( 'NONE',  ( 0.000000000000000000, 0.000000000000000000, 1.000000000000000000 ) ) ;
#373 = FACE_OUTER_BOUND ( 'NONE', #548, .T. ) ;
#374 = CIRCLE ( 'NONE', #444, 6.400000000000007461 ) ;
#375 = ORIENTED_EDGE ( 'NONE', *, *, #41, .F. ) ;
#376 = CARTESIAN_POINT ( 'NONE',  ( 0.000000000000000000, 20.00000000000000000, -99.75000000000000000 ) ) ;
#377 = EDGE_CURVE ( 'NONE', #504, #213, #540, .T. ) ;
#378 = DIRECTION ( 'NONE',  ( -0.000000000000000000, -1.000000000000000000, -0.000000000000000000 ) ) ;
#379 = VERTEX_POINT ( 'NONE', #376 ) ;
#380 = AXIS2_PLACEMENT_3D ( 'NONE', #209, #44, #206 ) ;
#381 = EDGE_LOOP ( 'NONE', ( #375, #431 ) ) ;
#382 = VERTEX_POINT ( 'NONE', #590 ) ;
#383 = CARTESIAN_POINT ( 'NONE',  ( 0.000000000000000000, 0.000000000000000000, 0.000000000000000000 ) ) ;
#384 = ORIENTED_EDGE ( 'NONE', *, *, #30, .T. ) ;
#385 = ORIENTED_EDGE ( 'NONE', *, *, #702, .F. ) ;
#386 = ORIENTED_EDGE ( 'NONE', *, *, #489, .T. ) ;
#387 = AXIS2_PLACEMENT_3D ( 'NONE', #632, #357, #404 ) ;
#388 = LINE ( 'NONE', #491, #85 ) ;
#389 = UNCERTAINTY_MEASURE_WITH_UNIT (LENGTH_MEASURE( 1.000000000000000082E-05 ), #666, 'distance_accuracy_value', 'NONE');
#390 = CIRCLE ( 'NONE', #635, 112.6000000000000085 ) ;
#391 = ORIENTED_EDGE ( 'NONE', *, *, #430, .T. ) ;
#392 = AXIS2_PLACEMENT_3D ( 'NONE', #704, #265, #428 ) ;
#393 = DIRECTION ( 'NONE',  ( -0.000000000000000000, -1.000000000000000000, -0.000000000000000000 ) ) ;
#394 = CIRCLE ( 'NONE', #359, 6.400000000000007461 ) ;
#395 = VERTEX_POINT ( 'NONE', #91 ) ;
#396 = DIRECTION ( 'NONE',  ( 0.000000000000000000, 0.000000000000000000, 1.000000000000000000 ) ) ;
#397 = DIRECTION ( 'NONE',  ( 0.000000000000000000, 1.000000000000000000, 0.000000000000000000 ) ) ;
#398 = AXIS2_PLACEMENT_3D ( 'NONE', #501, #547, #665 ) ;
#399 = CARTESIAN_POINT ( 'NONE',  ( 0.000000000000000000, 10.00000000000000000, 110.0000000000000000 ) ) ;
#400 = AXIS2_PLACEMENT_3D ( 'NONE', #542, #699, #598 ) ;
#401 = DIRECTION ( 'NONE',  ( 0.000000000000000000, 0.000000000000000000, 1.000000000000000000 ) ) ;
#402 = DIRECTION ( 'NONE',  ( -0.000000000000000000, -1.000000000000000000, -0.000000000000000000 ) ) ;
#403 = CARTESIAN_POINT ( 'NONE',  ( 1.378952295839919725E-14, 10.00000000000000000, -112.6000000000000085 ) ) ;
#404 = DIRECTION ( 'NONE',  ( 0.000000000000000000, 0.000000000000000000, -1.000000000000000000 ) ) ;
#405 = EDGE_CURVE ( 'NONE', #152, #54, #706, .T. ) ;
#406 = DIRECTION ( 'NONE',  ( 0.000000000000000000, 1.000000000000000000, 0.000000000000000000 ) ) ;
#407 = DIRECTION ( 'NONE',  ( 0.000000000000000000, 0.000000000000000000, 1.000000000000000000 ) ) ;
#408 = PRODUCT_DEFINITION_FORMATION_WITH_SPECIFIED_SOURCE ( 'ANY', '', #15, .NOT_KNOWN. ) ;
#409 = DIRECTION ( 'NONE',  ( 0.000000000000000000, -1.000000000000000000, 0.000000000000000000 ) ) ;
#410 = DIRECTION ( 'NONE',  ( -0.000000000000000000, -1.000000000000000000, -0.000000000000000000 ) ) ;
#411 = CARTESIAN_POINT ( 'NONE',  ( -70.00000000000000000, 0.000000000000000000, 6.399999999999998579 ) ) ;
#412 = CARTESIAN_POINT ( 'NONE',  ( 0.000000000000000000, 10.00000000000000000, 0.000000000000000000 ) ) ;
#413 = EDGE_CURVE ( 'NONE', #140, #395, #8, .T. ) ;
#414 = VECTOR ( 'NONE', #201, 1000.000000000000000 ) ;
#415 = CIRCLE ( 'NONE', #392, 6.400000000000007461 ) ;
#416 = DIRECTION ( 'NONE',  ( 0.000000000000000000, -1.000000000000000000, 0.000000000000000000 ) ) ;
#417 = ORIENTED_EDGE ( 'NONE', *, *, #1, .T. ) ;
#418 = AXIS2_PLACEMENT_3D ( 'NONE', #291, #228, #684 ) ;
#419 = FACE_OUTER_BOUND ( 'NONE', #156, .T. ) ;
#420 = CYLINDRICAL_SURFACE ( 'NONE', #594, 7.400000000000000355 ) ;
#421 = VERTEX_POINT ( 'NONE', #432 ) ;
#422 = DIRECTION ( 'NONE',  ( -0.000000000000000000, -1.000000000000000000, -0.000000000000000000 ) ) ;
#423 = DIRECTION ( 'NONE',  ( 0.000000000000000000, 0.000000000000000000, 1.000000000000000000 ) ) ;
#424 = AXIS2_PLACEMENT_3D ( 'NONE', #643, #639, #321 ) ;
#425 = EDGE_CURVE ( 'NONE', #164, #480, #285, .T. ) ;
#426 = CIRCLE ( 'NONE', #148, 7.400000000000000355 ) ;
#427 = ORIENTED_EDGE ( 'NONE', *, *, #98, .F. ) ;
#428 = DIRECTION ( 'NONE',  ( 0.000000000000000000, 0.000000000000000000, 1.000000000000000000 ) ) ;
#429 = DIRECTION ( 'NONE',  ( 0.000000000000000000, 0.000000000000000000, -1.000000000000000000 ) ) ;
#430 = EDGE_CURVE ( 'NONE', #280, #259, #315, .T. ) ;
#431 = ORIENTED_EDGE ( 'NONE', *, *, #1, .F. ) ;
#432 = CARTESIAN_POINT ( 'NONE',  ( 0.000000000000000000, 5.000000000000000000, -122.5000000000000000 ) ) ;
#433 = DIRECTION ( 'NONE',  ( 0.000000000000000000, -0.000000000000000000, 1.000000000000000000 ) ) ;
#434 = ORIENTED_EDGE ( 'NONE', *, *, #405, .T. ) ;
#435 = DIRECTION ( 'NONE',  ( -0.000000000000000000, -1.000000000000000000, -0.000000000000000000 ) ) ;
#436 = AXIS2_PLACEMENT_3D ( 'NONE', #495, #221, #167 ) ;
#437 = ORIENTED_EDGE ( 'NONE', *, *, #53, .T. ) ;
#438 = DIRECTION ( 'NONE',  ( 0.000000000000000000, 0.000000000000000000, 1.000000000000000000 ) ) ;
#439 = EDGE_CURVE ( 'NONE', #341, #529, #415, .T. ) ;
#440 = PRODUCT_CONTEXT ( 'NONE', #641, 'mechanical' ) ;
#441 = EDGE_CURVE ( 'NONE', #382, #561, #543, .T. ) ;
#442 = ORIENTED_EDGE ( 'NONE', *, *, #243, .T. ) ;
#443 = ORIENTED_EDGE ( 'NONE', *, *, #151, .T. ) ;
#444 = AXIS2_PLACEMENT_3D ( 'NONE', #470, #316, #154 ) ;
#445 = ORIENTED_EDGE ( 'NONE', *, *, #282, .F. ) ;
#446 = EDGE_LOOP ( 'NONE', ( #159, #267, #277, #604 ) ) ;
#447 = EDGE_CURVE ( 'NONE', #607, #395, #101, .T. ) ;
#448 = EDGE_LOOP ( 'NONE', ( #385, #146, #442, #525 ) ) ;
#449 = CARTESIAN_POINT ( 'NONE',  ( 1.500192328955507774E-14, 5.000000000000000000, 122.5000000000000000 ) ) ;
#450 = CIRCLE ( 'NONE', #705, 90.00000000000001421 ) ;
#451 = ORIENTED_EDGE ( 'NONE', *, *, #254, .T. ) ;
#452 = AXIS2_PLACEMENT_3D ( 'NONE', #369, #158, #692 ) ;
#453 = DIRECTION ( 'NONE',  ( -0.000000000000000000, -1.000000000000000000, -0.000000000000000000 ) ) ;
#454 = AXIS2_PLACEMENT_3D ( 'NONE', #412, #687, #182 ) ;
#455 = DIRECTION ( 'NONE',  ( 0.000000000000000000, 1.000000000000000000, 0.000000000000000000 ) ) ;
#456 = FACE_BOUND ( 'NONE', #279, .T. ) ;
#457 = CYLINDRICAL_SURFACE ( 'NONE', #638, 7.400000000000000355 ) ;
#458 = DIRECTION ( 'NONE',  ( 0.000000000000000000, 0.000000000000000000, -1.000000000000000000 ) ) ;
#459 = EDGE_CURVE ( 'NONE', #143, #664, #256, .T. ) ;
#460 = DIRECTION ( 'NONE',  ( 0.000000000000000000, 0.000000000000000000, -1.000000000000000000 ) ) ;
#461 = CARTESIAN_POINT ( 'NONE',  ( 0.000000000000000000, 0.000000000000000000, 0.000000000000000000 ) ) ;
#462 = CARTESIAN_POINT ( 'NONE',  ( 70.00000000000000000, 20.00000000000000000, 6.400000000000007461 ) ) ;
#463 = DIRECTION ( 'NONE',  ( 0.000000000000000000, 0.000000000000000000, 1.000000000000000000 ) ) ;
#464 = DIRECTION ( 'NONE',  ( 0.000000000000000000, 1.000000000000000000, 0.000000000000000000 ) ) ;
#465 = CIRCLE ( 'NONE', #217, 112.6000000000000085 ) ;
#466 = FACE_OUTER_BOUND ( 'NONE', #640, .T. ) ;
#467 = DIRECTION ( 'NONE',  ( 0.000000000000000000, 1.000000000000000000, 0.000000000000000000 ) ) ;
#468 = CYLINDRICAL_SURFACE ( 'NONE', #178, 3.300000000000000711 ) ;
#469 = DIRECTION ( 'NONE',  ( -0.000000000000000000, -1.000000000000000000, -0.000000000000000000 ) ) ;
#470 = CARTESIAN_POINT ( 'NONE',  ( -70.00000000000000000, 10.00000000000000000, -8.572527594031472993E-15 ) ) ;
#471 = ORIENTED_EDGE ( 'NONE', *, *, #425, .T. ) ;
#472 = CARTESIAN_POINT ( 'NONE',  ( -1.543054966925665470E-15, 10.00000000000000000, 27.40000000000000213 ) ) ;
#473 = DIRECTION ( 'NONE',  ( -0.000000000000000000, -1.000000000000000000, -0.000000000000000000 ) ) ;
#474 = EDGE_CURVE ( 'NONE', #322, #54, #658, .T. ) ;
#475 = ORIENTED_EDGE ( 'NONE', *, *, #219, .F. ) ;
#476 = EDGE_LOOP ( 'NONE', ( #703, #94, #582, #3 ) ) ;
#477 = CARTESIAN_POINT ( 'NONE',  ( 1.500192328955507774E-14, 10.00000000000000000, 122.5000000000000000 ) ) ;
#478 = EDGE_CURVE ( 'NONE', #561, #382, #326, .T. ) ;
#479 = CARTESIAN_POINT ( 'NONE',  ( 0.000000000000000000, 5.000000000000000000, 0.000000000000000000 ) ) ;
#480 = VERTEX_POINT ( 'NONE', #472 ) ;
#481 = ORIENTED_EDGE ( 'NONE', *, *, #30, .F. ) ;
#482 = DIRECTION ( 'NONE',  ( 0.000000000000000000, 0.000000000000000000, -1.000000000000000000 ) ) ;
#483 = CIRCLE ( 'NONE', #541, 90.00000000000001421 ) ;
#484 = DIRECTION ( 'NONE',  ( 0.000000000000000000, 1.000000000000000000, 0.000000000000000000 ) ) ;
#485 = AXIS2_PLACEMENT_3D ( 'NONE', #97, #537, #482 ) ;
#486 = CIRCLE ( 'NONE', #545, 2.600000000000004974 ) ;
#487 = ORIENTED_EDGE ( 'NONE', *, *, #377, .F. ) ;
#488 = CARTESIAN_POINT ( 'NONE',  ( 1.221585182149484838E-14, 20.00000000000000000, 99.75000000000000000 ) ) ;
#489 = EDGE_CURVE ( 'NONE', #331, #322, #670, .T. ) ;
#490 = ORIENTED_EDGE ( 'NONE', *, *, #447, .F. ) ;
#491 = CARTESIAN_POINT ( 'NONE',  ( 2.853427042013333212E-15, 20.00000000000000000, -16.69999999999999929 ) ) ;
#492 = ADVANCED_FACE ( 'NONE', ( #153, #456, #69, #124, #576 ), #675, .T. ) ;
#493 = VECTOR ( 'NONE', #133, 1000.000000000000000 ) ;
#494 = EDGE_LOOP ( 'NONE', ( #264, #592, #308, #490 ) ) ;
#495 = CARTESIAN_POINT ( 'NONE',  ( 2.449293598294706907E-15, 10.00000000000000000, -20.00000000000000000 ) ) ;
#496 = EDGE_LOOP ( 'NONE', ( #471, #451, #208, #246 ) ) ;
#497 = ORIENTED_EDGE ( 'NONE', *, *, #238, .F. ) ;
#498 = ADVANCED_FACE ( 'NONE', ( #75, #241 ), #67, .T. ) ;
#499 = CIRCLE ( 'NONE', #242, 6.400000000000007461 ) ;
#500 = VERTEX_POINT ( 'NONE', #131 ) ;
#501 = CARTESIAN_POINT ( 'NONE',  ( 1.347111479062088523E-14, 10.00000000000000000, -110.0000000000000000 ) ) ;
#502 = APPLICATION_PROTOCOL_DEFINITION ( 'draft international standard', 'automotive_design', 1998, #641 ) ;
#503 = EDGE_CURVE ( 'NONE', #550, #152, #508, .T. ) ;
#504 = VERTEX_POINT ( 'NONE', #624 ) ;
#505 = DIRECTION ( 'NONE',  ( 0.000000000000000000, 1.000000000000000000, 0.000000000000000000 ) ) ;
#506 = AXIS2_PLACEMENT_3D ( 'NONE', #292, #514, #127 ) ;
#507 = EDGE_LOOP ( 'NONE', ( #255, #384, #611, #111 ) ) ;
#508 = CIRCLE ( 'NONE', #225, 117.5000000000000000 ) ;
#509 = FACE_OUTER_BOUND ( 'NONE', #135, .T. ) ;
#510 = AXIS2_PLACEMENT_3D ( 'NONE', #184, #573, #12 ) ;
#511 = SURFACE_STYLE_FILL_AREA ( #343 ) ;
#512 = EDGE_CURVE ( 'NONE', #529, #561, #190, .T. ) ;
#513 = CARTESIAN_POINT ( 'NONE',  ( 0.000000000000000000, 0.000000000000000000, 117.5000000000000000 ) ) ;
#514 = DIRECTION ( 'NONE',  ( 0.000000000000000000, -1.000000000000000000, 0.000000000000000000 ) ) ;
#515 = SURFACE_STYLE_USAGE ( .BOTH. , #21 ) ;
#516 = CARTESIAN_POINT ( 'NONE',  ( 70.00000000000000000, 10.00000000000000000, 0.000000000000000000 ) ) ;
#517 = CARTESIAN_POINT ( 'NONE',  ( 0.000000000000000000, 20.00000000000000000, 0.000000000000000000 ) ) ;
#518 = COLOUR_RGB ( '',0.7921568627450980005, 0.8196078431372548767, 0.9333333333333333481 ) ;
#519 = VECTOR ( 'NONE', #552, 1000.000000000000000 ) ;
#520 = CARTESIAN_POINT ( 'NONE',  ( 0.000000000000000000, 10.00000000000000000, 0.000000000000000000 ) ) ;
#521 = CYLINDRICAL_SURFACE ( 'NONE', #418, 122.5000000000000000 ) ;
#522 = FACE_OUTER_BOUND ( 'NONE', #28, .T. ) ;
#523 = CARTESIAN_POINT ( 'NONE',  ( 2.449293598294706907E-15, 20.00000000000000000, -20.00000000000000000 ) ) ;
#524 = CARTESIAN_POINT ( 'NONE',  ( 0.000000000000000000, 10.00000000000000000, 112.6000000000000085 ) ) ;
#525 = ORIENTED_EDGE ( 'NONE', *, *, #647, .F. ) ;
#526 = DIRECTION ( 'NONE',  ( 0.000000000000000000, 0.000000000000000000, 1.000000000000000000 ) ) ;
#527 = AXIS2_PLACEMENT_3D ( 'NONE', #112, #662, #333 ) ;
#528 = CARTESIAN_POINT ( 'NONE',  ( 0.000000000000000000, 20.00000000000000000, 0.000000000000000000 ) ) ;
#529 = VERTEX_POINT ( 'NONE', #183 ) ;
#530 = CARTESIAN_POINT ( 'NONE',  ( 70.00000000000000000, 0.000000000000000000, 0.000000000000000000 ) ) ;
#531 = CARTESIAN_POINT ( 'NONE',  ( 0.000000000000000000, 20.00000000000000000, -99.75000000000000000 ) ) ;
#532 = VERTEX_POINT ( 'NONE', #411 ) ;
#533 = DIRECTION ( 'NONE',  ( 0.000000000000000000, 1.000000000000000000, 0.000000000000000000 ) ) ;
#534 = ADVANCED_FACE ( 'NONE', ( #128 ), #25, .T. ) ;
#535 = VERTEX_POINT ( 'NONE', #303 ) ;
#536 = EDGE_LOOP ( 'NONE', ( #211, #275 ) ) ;
#537 = DIRECTION ( 'NONE',  ( 0.000000000000000000, -1.000000000000000000, 0.000000000000000000 ) ) ;
#538 = CARTESIAN_POINT ( 'NONE',  ( 0.000000000000000000, 10.00000000000000000, 0.000000000000000000 ) ) ;
#539 = ORIENTED_EDGE ( 'NONE', *, *, #350, .F. ) ;
#540 = LINE ( 'NONE', #47, #414 ) ;
#541 = AXIS2_PLACEMENT_3D ( 'NONE', #517, #23, #196 ) ;
#542 = CARTESIAN_POINT ( 'NONE',  ( 70.00000000000000000, 20.00000000000000000, 0.000000000000000000 ) ) ;
#543 = CIRCLE ( 'NONE', #105, 6.400000000000007461 ) ;
#544 = EDGE_CURVE ( 'NONE', #395, #140, #294, .T. ) ;
#545 = AXIS2_PLACEMENT_3D ( 'NONE', #399, #677, #463 ) ;
#546 = ORIENTED_EDGE ( 'NONE', *, *, #610, .F. ) ;
#547 = DIRECTION ( 'NONE',  ( 1.000000000000000000, -0.000000000000000000, 1.224646799147353207E-16 ) ) ;
#548 = EDGE_LOOP ( 'NONE', ( #710, #481 ) ) ;
#549 = LINE ( 'NONE', #711, #519 ) ;
#550 = VERTEX_POINT ( 'NONE', #567 ) ;
#551 = CIRCLE ( 'NONE', #19, 3.300000000000000711 ) ;
#552 = DIRECTION ( 'NONE',  ( -0.000000000000000000, -1.000000000000000000, -0.000000000000000000 ) ) ;
#553 = EDGE_CURVE ( 'NONE', #331, #421, #563, .T. ) ;
#554 = VERTEX_POINT ( 'NONE', #524 ) ;
#555 = ORIENTED_EDGE ( 'NONE', *, *, #53, .F. ) ;
#556 = EDGE_CURVE ( 'NONE', #54, #421, #676, .T. ) ;
#557 =( NAMED_UNIT ( * ) SI_UNIT ( $, .STERADIAN. ) SOLID_ANGLE_UNIT ( ) );
#558 = AXIS2_PLACEMENT_3D ( 'NONE', #311, #40, #591 ) ;
#559 = ORIENTED_EDGE ( 'NONE', *, *, #339, .F. ) ;
#560 = CARTESIAN_POINT ( 'NONE',  ( 0.000000000000000000, 10.00000000000000000, 0.000000000000000000 ) ) ;
#561 = VERTEX_POINT ( 'NONE', #245 ) ;
#562 = DIRECTION ( 'NONE',  ( 0.000000000000000000, 1.000000000000000000, 0.000000000000000000 ) ) ;
#563 = LINE ( 'NONE', #572, #493 ) ;
#564 = ADVANCED_FACE ( 'NONE', ( #466 ), #468, .F. ) ;
#565 = DIRECTION ( 'NONE',  ( 0.000000000000000000, 0.000000000000000000, -1.000000000000000000 ) ) ;
#566 = ADVANCED_FACE ( 'NONE', ( #688 ), #233, .F. ) ;
#567 = CARTESIAN_POINT ( 'NONE',  ( 1.469576158976823671E-14, 0.000000000000000000, -117.5000000000000000 ) ) ;
#568 = MANIFOLD_SOLID_BREP ( 'Cortar-Extruir1', #29 ) ;
#569 = AXIS2_PLACEMENT_3D ( 'NONE', #538, #484, #433 ) ;
#570 = CARTESIAN_POINT ( 'NONE',  ( 2.853427042013333212E-15, 10.00000000000000000, -16.69999999999999929 ) ) ;
#571 = CARTESIAN_POINT ( 'NONE',  ( 70.00000000000000000, 10.00000000000000000, -6.400000000000007461 ) ) ;
#572 = CARTESIAN_POINT ( 'NONE',  ( 0.000000000000000000, 10.00000000000000000, -122.5000000000000000 ) ) ;
#573 = DIRECTION ( 'NONE',  ( 0.000000000000000000, 1.000000000000000000, 0.000000000000000000 ) ) ;
#574 = CARTESIAN_POINT ( 'NONE',  ( -2.449293598294706907E-15, 10.00000000000000000, 20.00000000000000000 ) ) ;
#575 = ADVANCED_FACE ( 'NONE', ( #149 ), #634, .F. ) ;
#576 = FACE_OUTER_BOUND ( 'NONE', #589, .T. ) ;
#577 = CIRCLE ( 'NONE', #506, 6.400000000000007461 ) ;
#578 = DIRECTION ( 'NONE',  ( -0.000000000000000000, -1.000000000000000000, -0.000000000000000000 ) ) ;
#579 = VECTOR ( 'NONE', #310, 1000.000000000000000 ) ;
#580 = AXIS2_PLACEMENT_3D ( 'NONE', #66, #284, #73 ) ;
#581 = CARTESIAN_POINT ( 'NONE',  ( 0.000000000000000000, 10.00000000000000000, 0.000000000000000000 ) ) ;
#582 = ORIENTED_EDGE ( 'NONE', *, *, #98, .T. ) ;
#583 = DIRECTION ( 'NONE',  ( 1.000000000000000000, -0.000000000000000000, 1.224646799147353207E-16 ) ) ;
#584 = DIRECTION ( 'NONE',  ( 0.000000000000000000, 1.000000000000000000, 0.000000000000000000 ) ) ;
#585 = EDGE_LOOP ( 'NONE', ( #618, #391, #668, #427 ) ) ;
#586 = CARTESIAN_POINT ( 'NONE',  ( 0.000000000000000000, 10.00000000000000000, -122.5000000000000000 ) ) ;
#587 = MECHANICAL_DESIGN_GEOMETRIC_PRESENTATION_REPRESENTATION (  '', ( #113 ), #56 ) ;
#588 = ORIENTED_EDGE ( 'NONE', *, *, #556, .T. ) ;
#589 = EDGE_LOOP ( 'NONE', ( #497, #559 ) ) ;
#590 = CARTESIAN_POINT ( 'NONE',  ( 70.00000000000000000, 0.000000000000000000, -6.400000000000007461 ) ) ;
#591 = DIRECTION ( 'NONE',  ( 0.000000000000000000, 0.000000000000000000, -1.000000000000000000 ) ) ;
#592 = ORIENTED_EDGE ( 'NONE', *, *, #14, .T. ) ;
#593 = DIRECTION ( 'NONE',  ( 0.000000000000000000, -1.000000000000000000, 0.000000000000000000 ) ) ;
#594 = AXIS2_PLACEMENT_3D ( 'NONE', #361, #261, #142 ) ;
#595 =( NAMED_UNIT ( * ) SI_UNIT ( $, .STERADIAN. ) SOLID_ANGLE_UNIT ( ) );
#596 = VERTEX_POINT ( 'NONE', #324 ) ;
#597 = CARTESIAN_POINT ( 'NONE',  ( 70.00000000000000000, 0.000000000000000000, 0.000000000000000000 ) ) ;
#598 = DIRECTION ( 'NONE',  ( 0.000000000000000000, 0.000000000000000000, -1.000000000000000000 ) ) ;
#599 = ORIENTED_EDGE ( 'NONE', *, *, #312, .T. ) ;
#600 = AXIS2_PLACEMENT_3D ( 'NONE', #244, #467, #636 ) ;
#601 = AXIS2_PLACEMENT_3D ( 'NONE', #520, #682, #301 ) ;
#602 = CIRCLE ( 'NONE', #454, 90.00000000000001421 ) ;
#603 = ORIENTED_EDGE ( 'NONE', *, *, #459, .F. ) ;
#604 = ORIENTED_EDGE ( 'NONE', *, *, #606, .T. ) ;
#605 = DIRECTION ( 'NONE',  ( 0.000000000000000000, 0.000000000000000000, 1.000000000000000000 ) ) ;
#606 = EDGE_CURVE ( 'NONE', #421, #54, #86, .T. ) ;
#607 = VERTEX_POINT ( 'NONE', #257 ) ;
#608 = LINE ( 'NONE', #64, #114 ) ;
#609 = CIRCLE ( 'NONE', #452, 99.75000000000000000 ) ;
#610 = EDGE_CURVE ( 'NONE', #322, #331, #332, .T. ) ;
#611 = ORIENTED_EDGE ( 'NONE', *, *, #144, .T. ) ;
#612 = AXIS2_PLACEMENT_3D ( 'NONE', #5, #505, #52 ) ;
#613 = CYLINDRICAL_SURFACE ( 'NONE', #527, 90.00000000000001421 ) ;
#614 = CIRCLE ( 'NONE', #224, 5.000000000000004441 ) ;
#615 = ORIENTED_EDGE ( 'NONE', *, *, #644, .T. ) ;
#616 = CIRCLE ( 'NONE', #173, 99.75000000000000000 ) ;
#617 = DIRECTION ( 'NONE',  ( 0.000000000000000000, 0.000000000000000000, -1.000000000000000000 ) ) ;
#618 = ORIENTED_EDGE ( 'NONE', *, *, #117, .T. ) ;
#619 = LINE ( 'NONE', #123, #650 ) ;
#620 = EDGE_CURVE ( 'NONE', #379, #143, #609, .T. ) ;
#621 = FILL_AREA_STYLE_COLOUR ( '', #518 ) ;
#622 = CIRCLE ( 'NONE', #306, 107.3999999999999915 ) ;
#623 = CARTESIAN_POINT ( 'NONE',  ( 0.000000000000000000, 10.00000000000000000, 0.000000000000000000 ) ) ;
#624 = CARTESIAN_POINT ( 'NONE',  ( -70.00000000000000000, 10.00000000000000000, -6.400000000000016342 ) ) ;
#625 = CARTESIAN_POINT ( 'NONE',  ( 0.000000000000000000, 20.00000000000000000, -90.00000000000001421 ) ) ;
#626 = LINE ( 'NONE', #189, #325 ) ;
#627 = DIRECTION ( 'NONE',  ( -0.000000000000000000, -1.000000000000000000, -0.000000000000000000 ) ) ;
#628 =( GEOMETRIC_REPRESENTATION_CONTEXT ( 3 ) GLOBAL_UNCERTAINTY_ASSIGNED_CONTEXT ( ( #389 ) ) GLOBAL_UNIT_ASSIGNED_CONTEXT ( ( #666, #110, #557 ) ) REPRESENTATION_CONTEXT ( 'NONE', 'WORKASPACE' ) );
#629 = ADVANCED_FACE ( 'NONE', ( #93 ), #187, .T. ) ;
#630 = FACE_BOUND ( 'NONE', #200, .T. ) ;
#631 = DIRECTION ( 'NONE',  ( -0.000000000000000000, -1.000000000000000000, -0.000000000000000000 ) ) ;
#632 = CARTESIAN_POINT ( 'NONE',  ( 0.000000000000000000, 20.00000000000000000, 0.000000000000000000 ) ) ;
#633 = CARTESIAN_POINT ( 'NONE',  ( -1.543054966925665470E-15, 20.00000000000000000, 27.40000000000000213 ) ) ;
#634 = CYLINDRICAL_SURFACE ( 'NONE', #400, 6.400000000000007461 ) ;
#635 = AXIS2_PLACEMENT_3D ( 'NONE', #305, #709, #320 ) ;
#636 = DIRECTION ( 'NONE',  ( 0.000000000000000000, 0.000000000000000000, 1.000000000000000000 ) ) ;
#637 = VECTOR ( 'NONE', #368, 1000.000000000000000 ) ;
#638 = AXIS2_PLACEMENT_3D ( 'NONE', #176, #239, #565 ) ;
#639 = DIRECTION ( 'NONE',  ( 0.000000000000000000, 1.000000000000000000, 0.000000000000000000 ) ) ;
#640 = EDGE_LOOP ( 'NONE', ( #689, #417, #283, #654 ) ) ;
#641 = APPLICATION_CONTEXT ( 'automotive_design' ) ;
#642 = CYLINDRICAL_SURFACE ( 'NONE', #262, 6.400000000000007461 ) ;
#643 = CARTESIAN_POINT ( 'NONE',  ( 0.000000000000000000, 10.00000000000000000, 0.000000000000000000 ) ) ;
#644 = EDGE_CURVE ( 'NONE', #535, #500, #155, .T. ) ;
#645 = ORIENTED_EDGE ( 'NONE', *, *, #405, .F. ) ;
#646 = CYLINDRICAL_SURFACE ( 'NONE', #104, 99.75000000000000000 ) ;
#647 = EDGE_CURVE ( 'NONE', #379, #194, #102, .T. ) ;
#648 = AXIS2_PLACEMENT_3D ( 'NONE', #345, #179, #401 ) ;
#649 = CARTESIAN_POINT ( 'NONE',  ( -70.00000000000000000, 0.000000000000000000, -8.572527594031472993E-15 ) ) ;
#650 = VECTOR ( 'NONE', #453, 1000.000000000000000 ) ;
#651 = ORIENTED_EDGE ( 'NONE', *, *, #474, .T. ) ;
#652 = ORIENTED_EDGE ( 'NONE', *, *, #272, .T. ) ;
#653 = CARTESIAN_POINT ( 'NONE',  ( 1.102182119232618069E-14, 20.00000000000000000, 90.00000000000001421 ) ) ;
#654 = ORIENTED_EDGE ( 'NONE', *, *, #544, .T. ) ;
#655 = CARTESIAN_POINT ( 'NONE',  ( -2.449293598294706907E-15, 10.00000000000000000, 20.00000000000000000 ) ) ;
#656 = FACE_OUTER_BOUND ( 'NONE', #476, .T. ) ;
#657 = ORIENTED_EDGE ( 'NONE', *, *, #679, .F. ) ;
#658 = LINE ( 'NONE', #477, #579 ) ;
#659 = ORIENTED_EDGE ( 'NONE', *, *, #556, .F. ) ;
#660 = CARTESIAN_POINT ( 'NONE',  ( -2.449293598294706907E-15, 0.000000000000000000, 20.00000000000000000 ) ) ;
#661 = ORIENTED_EDGE ( 'NONE', *, *, #663, .F. ) ;
#662 = DIRECTION ( 'NONE',  ( -0.000000000000000000, -1.000000000000000000, -0.000000000000000000 ) ) ;
#663 = EDGE_CURVE ( 'NONE', #314, #554, #465, .T. ) ;
#664 = VERTEX_POINT ( 'NONE', #204 ) ;
#665 = DIRECTION ( 'NONE',  ( 1.224646799147351728E-16, 0.000000000000000000, -1.000000000000000000 ) ) ;
#666 =( LENGTH_UNIT ( ) NAMED_UNIT ( * ) SI_UNIT ( .MILLI., .METRE. ) );
#667 = VERTEX_POINT ( 'NONE', #266 ) ;
#668 = ORIENTED_EDGE ( 'NONE', *, *, #339, .T. ) ;
#669 = VECTOR ( 'NONE', #578, 1000.000000000000000 ) ;
#670 = CIRCLE ( 'NONE', #195, 122.5000000000000000 ) ;
#671 = EDGE_LOOP ( 'NONE', ( #539, #445, #434, #220 ) ) ;
#672 = EDGE_CURVE ( 'NONE', #532, #213, #499, .T. ) ;
#673 = ORIENTED_EDGE ( 'NONE', *, *, #679, .T. ) ;
#674 = FACE_BOUND ( 'NONE', #65, .T. ) ;
#675 = PLANE ( 'NONE',  #601 ) ;
#676 = CIRCLE ( 'NONE', #698, 122.5000000000000000 ) ;
#677 = DIRECTION ( 'NONE',  ( -1.000000000000000000, 0.000000000000000000, 0.000000000000000000 ) ) ;
#678 = DIRECTION ( 'NONE',  ( -0.000000000000000000, -1.000000000000000000, -0.000000000000000000 ) ) ;
#679 = EDGE_CURVE ( 'NONE', #161, #504, #374, .T. ) ;
#680 = DIRECTION ( 'NONE',  ( 0.000000000000000000, 0.000000000000000000, 1.000000000000000000 ) ) ;
#681 = DIRECTION ( 'NONE',  ( 0.000000000000000000, 0.000000000000000000, -1.000000000000000000 ) ) ;
#682 = DIRECTION ( 'NONE',  ( 0.000000000000000000, 1.000000000000000000, 0.000000000000000000 ) ) ;
#683 = ADVANCED_FACE ( 'NONE', ( #45 ), #420, .F. ) ;
#684 = DIRECTION ( 'NONE',  ( 0.000000000000000000, 0.000000000000000000, -1.000000000000000000 ) ) ;
#685 = DIRECTION ( 'NONE',  ( -0.000000000000000000, -1.000000000000000000, -0.000000000000000000 ) ) ;
#686 = DIRECTION ( 'NONE',  ( 0.000000000000000000, 0.000000000000000000, -1.000000000000000000 ) ) ;
#687 = DIRECTION ( 'NONE',  ( -0.000000000000000000, -1.000000000000000000, -0.000000000000000000 ) ) ;
#688 = FACE_OUTER_BOUND ( 'NONE', #370, .T. ) ;
#689 = ORIENTED_EDGE ( 'NONE', *, *, #14, .F. ) ;
#690 = CYLINDRICAL_SURFACE ( 'NONE', #226, 3.300000000000000711 ) ;
#691 = ADVANCED_FACE ( 'NONE', ( #88, #373 ), #36, .T. ) ;
#692 = DIRECTION ( 'NONE',  ( 0.000000000000000000, 0.000000000000000000, 1.000000000000000000 ) ) ;
#693 = ORIENTED_EDGE ( 'NONE', *, *, #672, .F. ) ;
#694 = ADVANCED_FACE ( 'NONE', ( #656 ), #251, .F. ) ;
#695 = CARTESIAN_POINT ( 'NONE',  ( 0.000000000000000000, 10.00000000000000000, 0.000000000000000000 ) ) ;
#696 = ORIENTED_EDGE ( 'NONE', *, *, #553, .F. ) ;
#697 = DIRECTION ( 'NONE',  ( 0.000000000000000000, 0.000000000000000000, -1.000000000000000000 ) ) ;
#698 = AXIS2_PLACEMENT_3D ( 'NONE', #27, #353, #72 ) ;
#699 = DIRECTION ( 'NONE',  ( -0.000000000000000000, -1.000000000000000000, -0.000000000000000000 ) ) ;
#700 = APPLICATION_CONTEXT ( 'automotive_design' ) ;
#701 = EDGE_LOOP ( 'NONE', ( #337, #661 ) ) ;
#702 = EDGE_CURVE ( 'NONE', #143, #379, #37, .T. ) ;
#703 = ORIENTED_EDGE ( 'NONE', *, *, #430, .F. ) ;
#704 = CARTESIAN_POINT ( 'NONE',  ( 70.00000000000000000, 10.00000000000000000, 0.000000000000000000 ) ) ;
#705 = AXIS2_PLACEMENT_3D ( 'NONE', #302, #348, #360 ) ;
#706 = CIRCLE ( 'NONE', #380, 5.000000000000004441 ) ;
#707 =( NAMED_UNIT ( * ) PLANE_ANGLE_UNIT ( ) SI_UNIT ( $, .RADIAN. ) );
#708 = ORIENTED_EDGE ( 'NONE', *, *, #92, .F. ) ;
#709 = DIRECTION ( 'NONE',  ( 0.000000000000000000, 1.000000000000000000, 0.000000000000000000 ) ) ;
#710 = ORIENTED_EDGE ( 'NONE', *, *, #644, .F. ) ;
#711 = CARTESIAN_POINT ( 'NONE',  ( -70.00000000000000000, 20.00000000000000000, 6.399999999999998579 ) ) ;
#712 = CIRCLE ( 'NONE', #398, 2.600000000000004974 ) ;
#713 = ORIENTED_EDGE ( 'NONE', *, *, #441, .F. ) ;
#714 = EDGE_LOOP ( 'NONE', ( #4, #100 ) ) ;
#715 = SHAPE_DEFINITION_REPRESENTATION ( #24, #296 ) ;
ENDSEC;
END-ISO-10303-21;
